<svg xmlns="http://www.w3.org/2000/svg" viewBox="0 0 500 500"><g id="freepik--Table--inject-72"><polygon points="39.13 454.76 91.85 454.52 144.56 454.43 250 454.27 355.44 454.43 408.15 454.52 460.87 454.76 408.15 455.01 355.44 455.1 250 455.26 144.56 455.1 91.85 455.01 39.13 454.76" style="fill:#263238"></polygon></g><g id="freepik--Character--inject-72"><path d="M185.26,262.31a10.16,10.16,0,0,0-1.13-18.39c3.45-2.32,5.68-6.21,4.35-10.55-1.38-4.49-5.79-6.66-10.25-6,0,0,0,.06,0,.06,4.13-.16,8.3,2,9.52,6.13,1,3.56-.4,6.5-2.8,8.7a11.25,11.25,0,0,0,.93-8.91,8.7,8.7,0,0,0-7.69-5.8c.24-3.92-.88-8.19-4-10.77a8.71,8.71,0,0,0-9.45-1.17,9.73,9.73,0,0,0-17.13-5.13,8.16,8.16,0,0,0-12.9-4.74,5.51,5.51,0,0,0-4.93-3.31c-2.48-.12-4.67,1.25-6.45,2.88a6.56,6.56,0,0,0-6.25-.72,6,6,0,0,0-3.33,7c-3.9.45-8.07,1.48-10.76,4.52-2.21,2.51-3.18,6.25-1.64,9.29a11.81,11.81,0,0,0-8.14,15.68,8.3,8.3,0,0,0-4,7.27,12.34,12.34,0,0,0,1.32,5.78A6.22,6.22,0,0,0,88.2,261a8.19,8.19,0,0,0,4.91,5,4.86,4.86,0,0,1,.74,2,10.82,10.82,0,0,0,6,8.25,7.37,7.37,0,0,0,7.13,8.44,8.28,8.28,0,0,0,9.37,6.88,12.08,12.08,0,0,0,6.19,7.91c2.4,1.21,5.6,1.53,7.68-.3.68,2,3.23,2.67,5.21,2.12a10.71,10.71,0,0,0,2.15-.92,8.82,8.82,0,0,1,2.66-1.36c1-.14,1.91.48,2.79.75a10.07,10.07,0,0,0,2,.37,11,11,0,0,0,11.2-7.92c3.43,1,6.75-1.05,8.94-3.66a18.57,18.57,0,0,0,1.84-2.75,4.72,4.72,0,0,1,2-2.13c.58-.29,1.23-.45,1.81-.74,2-1,2.85-2.92,3.5-4.92C183.55,280.35,189.24,270.12,185.26,262.31Zm-95.87-.47a6.56,6.56,0,0,1,1.28-7.47l.18.29s-.42.79-.59,1.2a8.25,8.25,0,0,0-.53,2.36,8.54,8.54,0,0,0,1.06,4.85,9,9,0,0,0,1.36,1.78l.18.2A7.88,7.88,0,0,1,89.39,261.84Zm29.48-56a6.29,6.29,0,0,0-4.55,5.63l-.21,0c-.24-2.7.29-5.22,3.18-6.43a5.51,5.51,0,0,1,5.45.75l0,0A7,7,0,0,0,118.87,205.87ZM174.4,277.6s0-.06,0-.1a11.39,11.39,0,0,0,11.2-11.25C186,272.81,182.53,278.7,174.4,277.6Z" style="fill:#263238"></path><path d="M139.76,327c8.7,37,26.53,81.23,34.08,88.39,9.54,9.05,72.62,20.54,75.76,20.86,7.76.74,22.87-50.34,14.6-51.49-12.59-1.75-58.36-4-61.12-6.8s-22.3-27.17-42.3-54.58C147,304.42,134.36,304.05,139.76,327Z" style="fill:#ad6359"></path><path d="M245.32,433.7c.83.42,12.71,6.31,20.05,8.4,5.47,1.55,21.35,5.6,23.66-.25,1.58-4-7.48-7.48-13.83-10.08-3.34-1.38-7.47-4.85-6.5-7,1.7-3.76,10.31,0,16,3.22,10.95,6.29,25.57,17.63,32.21,12.05,2.51-2.1-.44-5.9-4.75-9.62,7,4.32,14.42,7.86,17.29,5.62,1.66-1.27,1.73-3,.79-5,2.15.68,4,.54,5.36-.87,2.25-2.38,1.13-5.86-1.36-9.43a2.66,2.66,0,0,0,2-1.36c4.75-7.32-19.32-28.14-27.61-30.06-24.4-5.66-50.08-4.44-50.08-4.44C249,392.61,245.3,433.68,245.32,433.7Z" style="fill:#ad6359"></path><path d="M281,411.07a41.29,41.29,0,0,1,16.29,6.17c6.2,4,10.33,8.8,15.54,13.58a.14.14,0,0,1-.19.21c-2.48-2.27-12.77-10.81-15.42-12.74A39.25,39.25,0,0,0,281,411.17C281,411.16,281,411.06,281,411.07Z" style="fill:#263238"></path><path d="M285.52,400.7c6.41,1.72,13,3.46,19,6.45,6.52,3.28,11.64,8.66,16.68,13.84q4.53,4.67,8.86,9.52c.12.13-.06.35-.19.22q-7.67-8-15.8-15.57a52,52,0,0,0-17.31-10.78c-3.68-1.38-7.45-2.47-11.21-3.56C285.43,400.8,285.45,400.68,285.52,400.7Z" style="fill:#263238"></path><path d="M292.31,391.62c6.23,1.25,11.67,2.31,17.2,5.62,7.32,4.37,14.4,11.77,16.89,14.4,2.74,2.9,5.39,5.88,8,8.91.11.13-.11.31-.22.19A207.89,207.89,0,0,0,315.09,402a41.29,41.29,0,0,0-10.66-6.85,73.76,73.76,0,0,0-12.12-3.52S292.29,391.62,292.31,391.62Z" style="fill:#263238"></path><path d="M253.54,381.78l-19,61.33s-52.41-14.66-62-24.92S145,354.77,139.63,329s7.72-25.21,19.81-9,42.15,55.48,43.82,56.33S253.54,381.78,253.54,381.78Z" style="fill:#118A7E"></path><path d="M228.44,415.21c2.15-6.85,4.36-13.68,6.26-20.61,1.08-3.94,2.18-7.87,3.22-11.82,0-.15-.21-.24-.26-.09-2.44,6.78-4.86,13.59-7,20.49s-4.28,13.71-6.31,20.6c-1.14,3.92-2.17,7.86-3.08,11.85,0,.08.11.13.14.05C224.09,429,226.28,422.11,228.44,415.21Z" style="fill:#263238"></path><path d="M208.1,434.83l-2.32-.8c-4.37-1.53-8.82-3.18-13-4.86l-1.6-.65-2.49-1c-.42-.17-.82-.36-1.23-.53l-.43-.19-1.26-.57c-1.67-.76-3.25-1.51-4.72-2.28l-1-.53a37.37,37.37,0,0,1-6.48-4.21l-.53-.49c-.18-.16-.34-.33-.49-.48-9.62-10.26-27.55-63.42-32.88-89.2l-.18-.89,0-.19c-.36-2-.68-4.39-.95-7v0c-.79-12.84,5.28-15,12.82-9.37C170.3,351.6,199.33,417.83,208.1,434.83Z" style="opacity:0.1"></path><polygon points="44.27 454.76 171.49 454.76 146.13 307.2 50.99 307.2 44.27 454.76" style="fill:#dbdbdb"></polygon><polygon points="44.27 454.76 55.42 454.76 61.68 307.2 50.99 307.2 44.27 454.76" style="fill:#a6a6a6"></polygon><path d="M185.94,454.76H54.76c-.58-2.61,20.06-117.55,64.29-149.9,9.82-7.18,27.23-2.57,32.07,4.41C175.47,344.35,185.94,454.76,185.94,454.76Z" style="fill:#ebebeb"></path><path d="M116.15,305.72s11.58,50.87,12.77,55.26,5.48,93.78,5.48,93.78H53.57S71.76,340.76,116.15,305.72Z" style="fill:#118A7E"></path><path d="M151.12,309.27s5.07,39,5.67,41.26S174,454.76,174,454.76h12.59S175.58,336.9,151.12,309.27Z" style="fill:#118A7E"></path><path d="M141.63,330.23c-7.89.58-19.08-13.12-22.72-23.36-.25-.71,6.57-26.1,7.39-31.27.17-1.06,31.18,13.07,31.18,13.07S152.55,299,151.16,308C151.06,308.78,149.26,329.67,141.63,330.23Z" style="fill:#ad6359"></path><path d="M157.48,288.68S152.55,299,151.17,308c0,.09,0,.5-.13,1.14-5.54-1.05-20.46-5.74-26.24-26.76h0c.73-3,1.3-5.53,1.5-6.8C126.47,274.54,157.48,288.68,157.48,288.68Z" style="fill:#263238"></path><path d="M129.79,236.07c-5.9,10.65-6.9,44.84-.36,53.9,9.48,13.14,28.49,18.26,40.54,6.06,11.67-11.81,12.19-56.39,4.56-65C163.29,218.38,138.52,220.34,129.79,236.07Z" style="fill:#ad6359"></path><path d="M157.69,264.61c0-.08-.19.11-.19.2,0,2.3-.47,4.94-2.59,5.6-.07,0-.07.14,0,.13C157.48,270.31,158,266.8,157.69,264.61Z" style="fill:#263238"></path><path d="M155.75,262.11c-3.69-.46-4.34,6.95-.92,7.38S158.84,262.5,155.75,262.11Z" style="fill:#263238"></path><path d="M170.73,266c0-.08.17.13.15.22-.27,2.29-.2,5,1.81,5.9.06,0,.05.15,0,.13C170.16,271.62,170.1,268.08,170.73,266Z" style="fill:#263238"></path><path d="M173,263.74c3.71,0,3.35,7.47-.09,7.43S169.87,263.7,173,263.74Z" style="fill:#263238"></path><path d="M153.28,260a28.31,28.31,0,0,0,3.05.27,4.93,4.93,0,0,0,3.15-.32,1.57,1.57,0,0,0,.56-1.83c-.61-1.37-2-1.83-3.42-2a5.74,5.74,0,0,0-4,.89A1.68,1.68,0,0,0,153.28,260Z" style="fill:#263238"></path><path d="M176.18,260.26c-1-.26-1.9-.67-2.88-1a4.93,4.93,0,0,1-2.73-1.61,1.56,1.56,0,0,1,.25-1.9c1.12-1,2.59-.82,3.93-.39a5.7,5.7,0,0,1,3.3,2.49A1.68,1.68,0,0,1,176.18,260.26Z" style="fill:#263238"></path><path d="M152.74,285.39c.5.58,1,1.37,1.81,1.51a6.06,6.06,0,0,0,2.52-.36.08.08,0,0,1,.09.13,3.1,3.1,0,0,1-3,1,2.45,2.45,0,0,1-1.63-2.19C152.49,285.33,152.67,285.3,152.74,285.39Z" style="fill:#263238"></path><path d="M155.75,278.73a7.85,7.85,0,0,0,4.91,3.93,9.8,9.8,0,0,0,2.8.38,2.49,2.49,0,0,0,.55,0l.51,0a.57.57,0,0,0,.5-.47v0a1,1,0,0,0,0-.24h0l0-.21c.2-1.76.26-4.46.26-4.46.62.38,3.78,2.15,3.81,1.22.22-7.68.46-16.22-1-23.91a.22.22,0,0,0-.43,0c-.5,7.37.31,14.79-.08,22.2a13.55,13.55,0,0,0-3.59-1.44c-.25.05,0,5.22-.18,6a.18.18,0,0,1,0,.08c-3,.12-5.16-1-7.86-3.22C155.83,278.39,155.63,278.53,155.75,278.73Z" style="fill:#263238"></path><path d="M181,245.16c-.55-2.8-1.78-3.56-1.78-3.56s.53-3.14-1.83-7.6c-2.46-4.67-5.77-5.73-5.77-5.73s-2.37-3.46-8.69-5.57c-1.46-.48-6-1.22-7.46-.9-1.71.38-3.29-.68-5-1a12.09,12.09,0,0,0-4.68.15,12.38,12.38,0,0,0-3.65,1.47,17.65,17.65,0,0,0-1.87,1.38,5.57,5.57,0,0,1-3.13,1.16,9.67,9.67,0,0,0-6.67,4,11.36,11.36,0,0,0-1.88,4.48c-.4,2-2.78,2.6-3.89,4.2a7.27,7.27,0,0,0,.18,8.44,7.94,7.94,0,0,0-3.83,9c.73,2.73,3,4.22,5.29,5.21a6.29,6.29,0,0,0,1.34.41c4.85,1.52,10.58-2.92,9.67-8.77,0,0,0,0,0,0a14,14,0,0,0,7.54-3.56c2.26-2,3.38-5.06,3.9-8.11a11,11,0,0,0,17.21-5.16c1.48,2.11,6.09,6,8.55,5.63-.07,6.95,4.25,10.18,5.51,10.33C180.33,251.15,181.67,248.38,181,245.16Zm-48,14.4c1.67-1.2,3.09-3.05,4.28-7.23A7.58,7.58,0,0,1,133.05,259.56Zm23-17.83a12.52,12.52,0,0,0,9.38-6.46A9.92,9.92,0,0,1,156.1,241.73Z" style="fill:#263238"></path><path d="M131.5,263.76s-5.41-12.12-10.77-10.39-2.72,18.3,2.56,21.51a5.9,5.9,0,0,0,8.36-1.62Z" style="fill:#ad6359"></path><path d="M121.6,258.1c-.09,0-.13.1-.06.15,3.68,2.38,5.07,6.48,5.81,10.6-.91-1.7-2.37-2.82-4.62-1.79-.12.06,0,.24.07.24a3.62,3.62,0,0,1,3.68,2,18.11,18.11,0,0,1,1.27,3.53c.11.39.8.33.74-.11,0,0,0-.07,0-.1C129.55,267.54,127,259.66,121.6,258.1Z" style="fill:#263238"></path><path d="M151,309.17l-8.29,16.69-22.26-26.09-5.95,8.94s20.22,37.74,20.44,36.1l8.32-15.3L153.56,341l.55-27.45Z" style="fill:#ebebeb"></path><path d="M154.6,327.44c-.07-4.54,0-9.11-.27-13.64,0-.16-.26-.24-.31-.05-1.13,4.31-.8,21.65-1,25.79l0-.05c-.43-.49-9.54-10.12-9.64-10-1.76,2.4-7.86,13.54-8.29,14.56-3.19-6-16.85-29.68-20.7-35.39a.16.16,0,0,0-.28.15c2.77,6.29,20.38,37.53,20.65,37.46a175.05,175.05,0,0,0,8.71-16.18c1.52,2.08,10.66,12.89,10.72,12.22A142.36,142.36,0,0,0,154.6,327.44Z" style="fill:#263238"></path><path d="M245.08,455.26H172.7c-6.17,0,2.76-17.58,25.3-24.33S252.19,448.67,245.08,455.26Z" style="fill:#37474f"></path><path d="M216.68,455.26a22,22,0,0,1,1-5.89,25.08,25.08,0,0,1,2.44-5.51A19.73,19.73,0,0,1,224,439.2,17,17,0,0,1,229,436c-.4.3-.81.58-1.21.86l-.61.42-.56.48-1.12.94-1,1a25.07,25.07,0,0,0-3.52,4.62,35.29,35.29,0,0,0-2.56,5.24A41.83,41.83,0,0,0,216.68,455.26Z" style="fill:#263238"></path><path d="M225.25,438.53a42.3,42.3,0,0,1,6.23,2.57,43.31,43.31,0,0,1,5.82,3.46,26,26,0,0,1,5,4.56,15.59,15.59,0,0,1,1.88,2.87,8.53,8.53,0,0,1,.86,3.27,9.89,9.89,0,0,0-1.29-3,15.81,15.81,0,0,0-2-2.59,35.58,35.58,0,0,0-5.05-4.26c-1.79-1.3-3.69-2.45-5.6-3.6-1-.57-1.93-1.11-2.91-1.64S226.24,439.06,225.25,438.53Z" style="fill:#263238"></path><path d="M100.64,320.47C77,353.77,42.75,413.38,58.53,424c26,17.45,97.35,22.13,113.67,22.53,7,.18,16.64-46.65,11.43-52.09s-79.94-2.52-80.89-7c-.55-2.56,8.59-26.15,13.22-54.46C121.3,300.3,107.31,311.09,100.64,320.47Z" style="fill:#ad6359"></path><path d="M171.1,391.84s21.31-2.2,35.32-3c7.82-.44,21.28,0,27.17,2.32,8.8,3.45,43.43,23.5,38.75,32-4.24,7.69-31.8-13.31-31.8-13.31s29.69,18.73,22.88,27.06-34.79-19.54-34.79-19.54,30.07,19.93,21.7,27.41c-6.33,5.65-33.1-18.17-33.1-18.17S243,443.94,236.69,450c-6.91,6.73-33-13.71-33-13.71-18.52,12.81-32.57,11.33-42.45,9.09C158.85,444.88,171.1,391.84,171.1,391.84Z" style="fill:#ad6359"></path><path d="M230.69,402.73c3.57,2.08,7.19,4.15,10.56,6.54s6.66,4.89,9.79,7.57c7.69,6.59,11.47,11.92,11.2,11.62-6.37-7.18-18.3-15.91-21.68-18.29s-6.6-4.93-10-7.31C230.51,402.8,230.6,402.68,230.69,402.73Z" style="fill:#263238"></path><path d="M221.86,414.74c4.44,2.85,8.95,5.51,13.27,8.56s10.17,7.47,14.24,10.79c.31.25.08.81-.25.57-4.2-3.15-10.4-7.41-14.64-10.51s-8.36-6.37-12.7-9.31C221.71,414.8,221.79,414.7,221.86,414.74Z" style="fill:#263238"></path><path d="M212.43,423.69c7,4,13.26,9.29,19.28,14.63.3.27,0,.34-.34.09-6.32-5-11.25-8.94-19.09-14.48C212.16,423.85,212.28,423.61,212.43,423.69Z" style="fill:#263238"></path><path d="M247.74,398.61a142.67,142.67,0,0,1,12.44,7.9c2,1.44,3.95,2.94,5.82,4.55a36.72,36.72,0,0,1,5.2,5.3,11.6,11.6,0,0,1,1.86,3.32,5,5,0,0,1,.26,2,3.67,3.67,0,0,1-.72,1.91,4.46,4.46,0,0,1-1.51,1.35,4.32,4.32,0,0,1-2,.49,11.1,11.1,0,0,1-3.75-.78,69.86,69.86,0,0,1-6.74-3.09c-2.2-1.09-4.37-2.23-6.58-3.29l.5-.82a58.09,58.09,0,0,1,7.79,7.33,27.34,27.34,0,0,1,3.15,4.36,9.28,9.28,0,0,1,1.41,5.27,4.93,4.93,0,0,1-3.4,4.17,8.79,8.79,0,0,1-5.37-.57,48.27,48.27,0,0,1-9.25-5.27l.13-.14a24.61,24.61,0,0,1,2.77,3.66,25.28,25.28,0,0,0-2.91-3.53l-.51-.54.63.4a49.73,49.73,0,0,0,9.31,4.93,8.21,8.21,0,0,0,5,.46,4.24,4.24,0,0,0,2.86-3.64,8.64,8.64,0,0,0-1.41-4.78,26.87,26.87,0,0,0-3.09-4.2,57.21,57.21,0,0,0-7.7-7.14l-3.51-2.74,4,1.92q3.33,1.61,6.6,3.28a68.22,68.22,0,0,0,6.62,3.09,9.93,9.93,0,0,0,3.41.75,3.34,3.34,0,0,0,3.14-4.56,11.28,11.28,0,0,0-1.68-3.1,36.13,36.13,0,0,0-5-5.29c-1.82-1.63-3.74-3.15-5.69-4.63C256,404,251.9,401.22,247.74,398.61Z" style="fill:#263238"></path><path d="M171.13,389.05l-20,60.42s-91.21-11.61-98-28.09,20.45-66.4,43-97.09c22.19-30.18,24.07-9.78,19.94,12.34s-11.89,47.87-10.58,49.61S171.13,389.05,171.13,389.05Z" style="fill:#118A7E"></path><path d="M140,440.87c.71-1.73,1.39-3.47,2.07-5.21q2-5.31,4.06-10.62c2.67-7,5.14-14.15,7.53-21.29,1.35-4.05,2.86-8.08,4-12.19a.16.16,0,0,0-.31-.11c-1.55,3.45-2.84,7-4.23,10.55s-2.83,7-4.17,10.58c-2.65,7.05-5.18,14.13-7.64,21.25-.68,2-1.45,4-2,6-.31,1-.7,2.06-1,3.1s-.51,2.11-.83,3.15a.09.09,0,0,0,.17.06C138.37,444.37,139.24,442.65,140,440.87Z" style="fill:#263238"></path><path d="M152.7,445.32l-1.41,4.22,0,.13h-.15c-8.61-.79-17.18-1.88-25.72-3.19s-17.05-2.89-25.5-4.76a224.66,224.66,0,0,1-25-6.89,90.75,90.75,0,0,1-12-5.06,39,39,0,0,1-5.52-3.47,13,13,0,0,1-4.21-4.91,13.92,13.92,0,0,0,4.5,4.5,40.42,40.42,0,0,0,5.65,3,104.24,104.24,0,0,0,12.06,4.45c8.21,2.53,16.58,4.56,25,6.4s16.87,3.5,25.34,5.05,17,3.06,25.49,4.47l-.19.12Z" style="fill:#263238"></path><path d="M170.35,391.4,171,389l.1.15c-9,.23-18,.34-27,.25s-18-.27-27-.75c-2.26-.14-4.52-.29-6.78-.51-1.14-.11-2.26-.23-3.43-.44a8.32,8.32,0,0,1-.91-.2,3.88,3.88,0,0,1-.52-.17,3.62,3.62,0,0,1-.37-.2,1,1,0,0,1-.3-.3,1.09,1.09,0,0,1-.14-.23.41.41,0,0,1,0-.12,3.46,3.46,0,0,1-.06-1.2c0-.29,0-.61.1-.89.7-4.55,1.74-8.91,2.79-13.31,2.1-8.77,4.46-17.48,7-26.13l-5.49,26.47c-.86,4.4-1.86,8.83-2.43,13.2,0,.28,0,.53-.08.79a3.7,3.7,0,0,1,0,.48s0,0,0,0a.69.69,0,0,0-.07-.15c-.05-.09-.19-.18-.15-.16s0,0,0,0l.28.08a6.82,6.82,0,0,0,.74.16c1,.18,2.17.29,3.27.39,2.22.2,4.46.34,6.71.46q6.72.36,13.48.6l13.49.52c9,.32,18,.72,27,1.15h.16l0,.13Z" style="fill:#263238"></path><path d="M115.88,350.4a23.86,23.86,0,0,1-2,4.5,18.27,18.27,0,0,1-2.89,4c.7-1.5,1.44-2.94,2.23-4.36A36.26,36.26,0,0,1,115.88,350.4Z" style="fill:#263238"></path></g><g id="freepik--Device--inject-72"><rect x="249.53" y="447.77" width="7.29" height="4.76" style="fill:#455a64"></rect><rect x="258.98" y="447.46" width="7.29" height="4.76" style="fill:#455a64"></rect><rect x="268.43" y="447.14" width="7.29" height="4.76" style="fill:#455a64"></rect><rect x="277.88" y="446.83" width="7.29" height="4.76" style="fill:#455a64"></rect><rect x="287.33" y="446.51" width="7.29" height="4.76" style="fill:#455a64"></rect><rect x="296.78" y="446.2" width="7.29" height="4.76" style="fill:#455a64"></rect><rect x="306.23" y="445.88" width="7.29" height="4.76" style="fill:#455a64"></rect><rect x="315.68" y="445.57" width="7.29" height="4.76" style="fill:#455a64"></rect><rect x="325.13" y="445.25" width="7.29" height="4.76" style="fill:#455a64"></rect><polygon points="334.2 455.26 247.75 455.26 247.75 449.48 334.2 447.06 334.2 455.26" style="fill:#37474f"></polygon><polygon points="404.6 427.51 261.88 427.51 284.57 321.25 427.3 321.25 404.6 427.51" style="fill:#455a64"></polygon><polygon points="409.88 427.51 267.15 427.51 289.85 321.25 432.58 321.25 409.88 427.51" style="fill:#37474f"></polygon><path d="M362.2,368.23A10.74,10.74,0,0,1,352,377.05a7.35,7.35,0,0,1-7.43-8.82,10.75,10.75,0,0,1,10.23-8.83A7.34,7.34,0,0,1,362.2,368.23Z" style="fill:#263238"></path><polygon points="369.52 455.26 299.32 455.26 299.32 449.81 369.52 447.54 369.52 455.26" style="fill:#455a64"></polygon><polygon points="388.6 455.26 350.91 455.26 328.21 395.71 365.9 395.71 388.6 455.26" style="fill:#455a64"></polygon><polygon points="394.81 455.26 357.12 455.26 334.42 395.71 372.11 395.71 394.81 455.26" style="fill:#263238"></polygon></g><g id="freepik--Plant--inject-72"><path d="M416.79,375.54c13.06,12.78,15.25,32.56,12.5,49.89-.07.39-.68.29-.68-.08,0-4,.12-7.86.11-11.75-.07-.18-.13-.35-.21-.53-3.4-2.48-6.54-5.28-8.48-9.11-2.18-4.29-3-9.13-4.71-13.61-.15-.43.31-.3.61-.08,7.94,5.86,10.47,12.16,12.75,20.59a70.35,70.35,0,0,0-1.38-13.12c-1.72-8-5.11-15.92-10.86-21.86A.24.24,0,0,1,416.79,375.54Z" style="fill:#263238"></path><path d="M414.33,377c-2.24.08-3.65,3.67-5.4,4.71a1.68,1.68,0,0,1-2.48-.39c-1.74-2.42.64-5.41,2.88-7.08-1.6.66-2.93,1.82-4.65,2.15a1.62,1.62,0,0,1-2.1-1.26c-.76-3.3,3.38-4.77,6.22-4.84-1.38-1-5.33-3.56-3.23-4.84s6.76,2.43,8.27,3.66c2.22,1.8,4.87,4.5,5,7.31C418.94,379.74,416.06,377.72,414.33,377Z" style="fill:#118A7E"></path><path d="M414.33,377c-2.24.08-3.65,3.67-5.4,4.71a1.68,1.68,0,0,1-2.48-.39c-1.74-2.42.64-5.41,2.88-7.08-1.6.66-2.93,1.82-4.65,2.15a1.62,1.62,0,0,1-2.1-1.26c-.76-3.3,3.38-4.77,6.22-4.84-1.38-1-5.33-3.56-3.23-4.84s6.76,2.43,8.27,3.66c2.22,1.8,4.87,4.5,5,7.31C418.94,379.74,416.06,377.72,414.33,377Z" style="opacity:0.1"></path><path d="M415,377.58c-2.87-1.3-8.39.58-8.86-.51-.95-2.21,3.46-3.73,5.84-4-2.19-.59-6.39-1.54-6.26-3.65.16-2.58,6.44-.36,9.62,2.08,4,3.07,4,6,3.32,6.63C417.73,378.91,415.46,377.8,415,377.58Z" style="fill:#118A7E"></path><path d="M446.53,374.27c-13.54,12.28-16.48,32-14.39,49.38.06.4.67.31.69,0,.15-4,.17-7.86.33-11.75l.23-.52c3.5-2.34,6.74-5,8.82-8.78,2.34-4.21,3.39-9,5.22-13.42.17-.42-.29-.31-.6-.11-8.16,5.56-10.93,11.76-13.53,20.09a71.17,71.17,0,0,1,1.88-13.05c2-7.93,5.72-15.72,11.68-21.43A.24.24,0,0,0,446.53,374.27Z" style="fill:#263238"></path><path d="M448.93,375.86c2.24.16,3.51,3.8,5.22,4.91a1.67,1.67,0,0,0,2.49-.29c1.83-2.36-.44-5.43-2.61-7.19,1.57.72,2.86,1.93,4.57,2.32a1.62,1.62,0,0,0,2.15-1.18c.88-3.27-3.2-4.89-6-5.07,1.42-.9,5.46-3.36,3.41-4.71s-6.84,2.17-8.4,3.34c-2.29,1.72-5,4.31-5.24,7.12C444.22,378.39,447.17,376.48,448.93,375.86Z" style="fill:#118A7E"></path><path d="M448.93,375.86c2.24.16,3.51,3.8,5.22,4.91a1.67,1.67,0,0,0,2.49-.29c1.83-2.36-.44-5.43-2.61-7.19,1.57.72,2.86,1.93,4.57,2.32a1.62,1.62,0,0,0,2.15-1.18c.88-3.27-3.2-4.89-6-5.07,1.42-.9,5.46-3.36,3.41-4.71s-6.84,2.17-8.4,3.34c-2.29,1.72-5,4.31-5.24,7.12C444.22,378.39,447.17,376.48,448.93,375.86Z" style="opacity:0.1"></path><path d="M448.26,376.38c2.92-1.19,8.36.9,8.87-.17,1-2.18-3.31-3.86-5.68-4.25,2.21-.51,6.44-1.29,6.4-3.41-.06-2.58-6.43-.61-9.7,1.71-4.12,2.92-4.21,5.88-3.57,6.5C445.46,377.61,447.77,376.58,448.26,376.38Z" style="fill:#118A7E"></path><path d="M432.69,406.7a133.52,133.52,0,0,1-4.2,19.42.49.49,0,0,1-.95-.19c.89-6,2.51-11.86,3.4-17.84a89.84,89.84,0,0,0,1-18.32c-.57-10.08-3.31-20.8-9.89-28.69-.14-.19.16-.45.31-.28,13.17,15.36,11.08,34.19,11.07,35.88,1.86-6.36,3.78-13.65,10.84-20.12.3-.28.54-.15.49.32-1.26,11.8-4.54,17.95-11.38,24.26C433.23,403,433,404.87,432.69,406.7Z" style="fill:#263238"></path><path d="M422,362.84c-2.37-1-5.64,2-8,2.18a2,2,0,0,1-2.38-1.66c-.58-3.38,3.4-5.28,6.56-5.89-2-.13-3.95.41-5.91-.12a1.88,1.88,0,0,1-1.55-2.37c.88-3.8,5.91-3.24,8.9-1.88-.95-1.69-3.74-6.38-.92-6.65s5.79,5.93,6.74,8c1.4,3,2.79,7.12,1.47,10.09C425.38,368,423.42,364.43,422,362.84Z" style="fill:#118A7E"></path><path d="M422,362.84c-2.37-1-5.64,2-8,2.18a2,2,0,0,1-2.38-1.66c-.58-3.38,3.4-5.28,6.56-5.89-2-.13-3.95.41-5.91-.12a1.88,1.88,0,0,1-1.55-2.37c.88-3.8,5.91-3.24,8.9-1.88-.95-1.69-3.74-6.38-.92-6.65s5.79,5.93,6.74,8c1.4,3,2.79,7.12,1.47,10.09C425.38,368,423.42,364.43,422,362.84Z" style="opacity:0.1"></path><path d="M422.37,363.75c-2.32-2.8-9-3.63-8.94-5,.13-2.77,5.47-2.13,8.09-1.23-2-1.72-5.86-4.82-4.66-6.95,1.46-2.6,6.87,2.87,8.94,7,2.61,5.21,1.09,8.27.1,8.55C424.55,366.51,422.75,364.21,422.37,363.75Z" style="fill:#118A7E"></path><path d="M441.35,410.25l5.81,44.39H411.81c.73-3.93,7.31-44.44,7.31-44.44Z" style="fill:#118A7E"></path></g></svg>