<svg xmlns="http://www.w3.org/2000/svg" viewBox="0 0 500 500"><g id="freepik--Shadow--inject-228"><ellipse id="freepik--path--inject-228" cx="250" cy="415.69" rx="193.89" ry="11.32" style="fill:#f5f5f5"></ellipse></g><g id="freepik--Device--inject-228"><path d="M188.5,187.87h10.7A3.75,3.75,0,0,1,203,192l-2,22.57a4.62,4.62,0,0,1-4.51,4.15H185.8a3.75,3.75,0,0,1-3.79-4.15L184,192A4.62,4.62,0,0,1,188.5,187.87Z" style="fill:#7E57C2"></path><path d="M308.2,183.05h16.72a5.85,5.85,0,0,1,5.92,6.48l-2.06,23.57a7.22,7.22,0,0,1-7,6.48H305a5.85,5.85,0,0,1-5.91-6.48l2.06-23.57A7.22,7.22,0,0,1,308.2,183.05Z" style="isolation:isolate;opacity:0.2"></path><path d="M304.77,222.21H321.5a5.85,5.85,0,0,1,5.91,6.48l-2.06,23.57a7.21,7.21,0,0,1-7.05,6.48H301.58a5.85,5.85,0,0,1-5.92-6.48l2.07-23.57A7.21,7.21,0,0,1,304.77,222.21Z" style="isolation:isolate;opacity:0.2"></path><path d="M218.51,138.86h93.16a21.14,21.14,0,0,1,21.39,23.45L313.18,389.48a26.09,26.09,0,0,1-25.49,23.44H194.53a21.14,21.14,0,0,1-21.39-23.44L193,162.31A26.09,26.09,0,0,1,218.51,138.86Z" style="fill:#7E57C2"></path><path d="M218.51,138.86h93.16a21.14,21.14,0,0,1,21.39,23.45L313.18,389.48a26.09,26.09,0,0,1-25.49,23.44H194.53a21.14,21.14,0,0,1-21.39-23.44L193,162.31A26.09,26.09,0,0,1,218.51,138.86Z" style="isolation:isolate;opacity:0.2"></path><path d="M215.5,138.86h93.17a21.15,21.15,0,0,1,21.39,23.45L310.18,389.48a26.1,26.1,0,0,1-25.49,23.44H191.53a21.13,21.13,0,0,1-21.39-23.44L190,162.31C191.14,149.36,202.56,138.86,215.5,138.86Z" style="fill:#7E57C2"></path><path d="M327.26,162.31,307.39,389.47a23,23,0,0,1-22.46,20.64H191.77a18.61,18.61,0,0,1-18.84-20.64l19.88-227.16a23,23,0,0,1,22.45-20.65h93.16A18.62,18.62,0,0,1,327.26,162.31Z" style="fill:#fff"></path><g style="opacity:0.1"><path d="M191.77,410.11h35.32l57.06-268.45h-45L182.57,407.84A19.43,19.43,0,0,0,191.77,410.11Z"></path><polygon points="305.75 141.66 297.19 141.66 240.12 410.11 248.69 410.11 305.75 141.66"></polygon></g><path d="M234.53,141a6,6,0,0,0,6,6.62h41.5a7.39,7.39,0,0,0,7.19-6.62Z" style="fill:#7E57C2"></path><path d="M306.73,149h9.42a1.3,1.3,0,0,1,1.3,1.43l-.36,4.1a1.59,1.59,0,0,1-1.55,1.43h-9.42a1.29,1.29,0,0,1-1.3-1.43l.36-4.1A1.59,1.59,0,0,1,306.73,149Z" style="fill:#7E57C2"></path><path d="M206.15,149h12.61a1.46,1.46,0,0,1,1.47,1.61l-.33,3.74a1.79,1.79,0,0,1-1.75,1.61H205.54a1.45,1.45,0,0,1-1.46-1.61l.32-3.74A1.79,1.79,0,0,1,206.15,149Z" style="fill:#7E57C2;isolation:isolate"></path><path d="M206.15,149h12.61a1.46,1.46,0,0,1,1.47,1.61l-.33,3.74a1.79,1.79,0,0,1-1.75,1.61H205.54a1.45,1.45,0,0,1-1.46-1.61l.32-3.74A1.79,1.79,0,0,1,206.15,149Z" style="fill:#fff;isolation:isolate;opacity:0.4"></path><path d="M304.22,150.16h1.48a.47.47,0,0,1,.48.52l-.31,3.54a.58.58,0,0,1-.57.52h-1.48a.47.47,0,0,1-.48-.52l.31-3.54A.58.58,0,0,1,304.22,150.16Z" style="fill:#7E57C2"></path><path d="M314.28,150.16h1.49a.47.47,0,0,1,.47.52l-.31,3.54a.57.57,0,0,1-.56.52h-1.49a.47.47,0,0,1-.47-.52l.31-3.54A.57.57,0,0,1,314.28,150.16Z" style="fill:#fff"></path><path d="M311.09,150.16h1.49a.47.47,0,0,1,.47.52l-.31,3.54a.57.57,0,0,1-.56.52h-1.49a.47.47,0,0,1-.47-.52l.31-3.54A.57.57,0,0,1,311.09,150.16Z" style="fill:#fff"></path><path d="M327.83,212.94l-2,23.23a4.64,4.64,0,0,0,3.74-4.08L330.85,217A3.72,3.72,0,0,0,327.83,212.94Z" style="fill:#7E57C2"></path><path d="M327.83,212.94l-2,23.23a4.64,4.64,0,0,0,3.74-4.08L330.85,217A3.72,3.72,0,0,0,327.83,212.94Z" style="isolation:isolate;opacity:0.2"></path><path d="M330,187.87l-2,23.23a4.62,4.62,0,0,0,3.73-4.07L333,192A3.74,3.74,0,0,0,330,187.87Z" style="fill:#7E57C2"></path><path d="M330,187.87l-2,23.23a4.62,4.62,0,0,0,3.73-4.07L333,192A3.74,3.74,0,0,0,330,187.87Z" style="isolation:isolate;opacity:0.2"></path></g><g id="freepik--character-2--inject-228"><rect x="260.27" y="288.18" width="35.63" height="35.63" style="fill:#7E57C2"></rect><rect x="295.89" y="288.18" width="21.88" height="35.63" style="fill:#7E57C2"></rect><polygon points="289.09 279.24 253.46 279.24 260.27 288.18 295.89 288.18 289.09 279.24" style="fill:#7E57C2"></polygon><rect x="295.89" y="288.18" width="21.88" height="35.63" style="fill:#fff;opacity:0.30000000000000004"></rect><polygon points="289.09 279.24 253.46 279.24 260.27 288.18 295.89 288.18 289.09 279.24" style="fill:#fff;opacity:0.4"></polygon><polygon points="302.34 279.24 324.22 279.24 317.78 288.18 295.89 288.18 302.34 279.24" style="fill:#7E57C2"></polygon><rect x="260.27" y="288.18" width="35.63" height="35.63" style="fill:#fff;opacity:0.6000000000000001"></rect><polygon points="302.34 279.24 324.22 279.24 317.78 288.18 295.89 288.18 302.34 279.24" style="fill:#fff;opacity:0.2"></polygon><rect x="306.35" y="322.93" width="89.8" height="89.8" style="fill:#7E57C2"></rect><rect x="306.35" y="322.93" width="89.8" height="89.8" style="fill:#fff;opacity:0.4"></rect><rect x="251.17" y="322.93" width="55.16" height="89.8" style="fill:#7E57C2"></rect><rect x="251.17" y="322.93" width="55.16" height="89.8" style="fill:#fff;opacity:0.6000000000000001"></rect><polygon points="268.21 322.93 268.21 347.05 270.4 348.2 272.29 346.63 275.28 348.2 278.12 346.63 280.32 348.2 282.84 346.63 284.27 347.92 284.27 322.93 268.21 322.93" style="fill:#fff;opacity:0.5"></polygon><polygon points="284.27 412.73 284.27 388.61 282.08 387.45 280.19 389.03 277.2 387.45 274.36 389.03 272.16 387.45 269.64 389.03 268.21 387.74 268.21 412.73 284.27 412.73" style="fill:#fff;opacity:0.5"></polygon><path d="M343,359.55c.51,2.05.76,3.08,1.27,5.13.13.55.2.83.34,1.39.51,2.05.76,3.08,1.27,5.13h13.32c-.07.54-.1.81-.16,1.35H346.77c.13.56.19.84.32,1.39H360l.42-2.74c.31-2.05.47-3.08.78-5.13.09-.56.13-.84.21-1.39.31-2.05.47-3.08.78-5.13.07-.42.1-.63.16-1.05H367c.13-.55.2-.83.34-1.38h-6.45c-.12,1-.18,1.45-.29,2.43H343Zm17,5.13h-3.82c0-1.5.06-2.25.11-3.75h4.15C360.22,362.43,360.14,363.18,360,364.68Zm-4,5.13c0-1.5.07-2.25.11-3.74h3.7l-.45,3.74Zm-5-3.74h3.69c0,1.49,0,2.24,0,3.74h-3.37C351.23,368.31,351.16,367.56,351,366.07Zm-.47-5.14h4.15c0,1.5,0,2.25,0,3.75H350.9C350.76,363.18,350.69,362.43,350.56,360.93Zm-4.6,5.14h3.7c.18,1.49.28,2.24.47,3.74h-3.37Zm-1.1-5.14H349c.18,1.5.28,2.25.46,3.75h-3.82Z" style="fill:#fff"></path><circle cx="359.16" cy="376.89" r="1.65" style="fill:#fff"></circle><circle cx="347.45" cy="376.89" r="1.65" style="fill:#fff"></circle><g style="opacity:0.5"><path d="M266.59,359.55c.51,2.05.76,3.08,1.27,5.13.13.55.2.83.34,1.39.51,2.05.76,3.08,1.27,5.13h13.32c-.07.54-.1.81-.16,1.35H270.38c.13.56.19.84.32,1.39h12.87l.42-2.74c.31-2.05.47-3.08.78-5.13.08-.56.13-.84.21-1.39.31-2.05.47-3.08.78-5.13l.16-1.05h4.66c.13-.55.2-.83.34-1.38h-6.45c-.12,1-.18,1.45-.29,2.43H266.59Zm17,5.13h-3.82l.11-3.75H284C283.83,362.43,283.74,363.18,283.57,364.68Zm-4,5.13c.05-1.5.07-2.25.11-3.74h3.7l-.45,3.74Zm-4.95-3.74h3.69c0,1.49,0,2.24,0,3.74H275C274.84,368.31,274.77,367.56,274.64,366.07Zm-.48-5.14h4.16c0,1.5,0,2.25,0,3.75h-3.82Zm-4.59,5.14h3.7l.46,3.74h-3.36Zm-1.1-5.14h4.16c.18,1.5.28,2.25.46,3.75h-3.82Z" style="fill:#fff"></path><circle cx="282.77" cy="376.89" r="1.65" style="fill:#fff"></circle><circle cx="271.06" cy="376.89" r="1.65" style="fill:#fff"></circle></g><path d="M363.36,251.47s3.12,22.39,5.92,26.25,15.38,14.54,15.38,14.54l7.95-1.16,5.33,5-3.86,2.67-4.25-1.9a41.57,41.57,0,0,1-7.22.17c-4.06-.25-19.92-11-22.84-16.61s-6.22-26.38-6.22-26.38Z" style="fill:#ce7a63"></path><path d="M366,257.94l-.8.14c-.55-5.26-2.75-21.24-8.78-17.14-5.79,3.95-4.16,15.16-3.32,19.35l-1,.17.88,2.76,13.33-2.55Z" style="fill:#7E57C2"></path><path d="M361,247.37l-1.47-3.16-4.61,4.64-2.65,4a43.9,43.9,0,0,0,.86,7.45l-1,.17.88,2.76,7.52-1.44A51.09,51.09,0,0,0,361,247.37Z" style="opacity:0.2"></path><path d="M361.46,207.19s15.9,3.44,7.45,11l-7-6.11Z" style="fill:#263238"></path><polygon points="383.53 375.08 373.41 399.87 366.39 397.14 372.05 372.5 383.53 375.08" style="fill:#ce7a63"></polygon><polygon points="372.55 370.75 368.56 388.12 377.21 390.05 384.03 373.32 372.55 370.75" style="isolation:isolate;opacity:0.2"></polygon><path d="M375,399.29c1.29,2.93,2.16,5.34,7.44,8.47,1.15.66-.8,3.7-3.67,2.41-4.74-2.14-3.5-2.18-7.56-3.94-3.41-1.51-5.95-2.42-8.73-3.58a.82.82,0,0,1-.2-.12h0a1.12,1.12,0,0,1-.23-1.56l4.1-5.61a.67.67,0,0,1,.82-.22l6.64,2.86A2.69,2.69,0,0,1,375,399.29Z" style="fill:#263238"></path><path d="M406.18,316.82c-1.29,16-24.27,68.89-24.27,68.89l-13.64-3.8s10.42-50.81,17.22-59.22c0,0-2.22,0-5.79.07-12.43.11-41.24.09-49.55-2.12-5.93-1.58-18.32-4.75-15-24.59l15.36-.53,17.89-.62S408,295,406.18,316.82Z" style="fill:#263238"></path><path d="M379.7,322.76c-12.43.11-41.24.09-49.55-2.12-5.93-1.58-18.32-4.75-15-24.59l15.36-.53c12.09,1.43,27.89,3.82,38.66,8.45,5.24,2.25,8.88,6.31,9.95,11.09A56.66,56.66,0,0,1,379.7,322.76Z" style="isolation:isolate;opacity:0.2"></path><polygon points="359.81 374.2 354.75 399.47 347.14 399.12 348.04 373.85 359.81 374.2" style="fill:#ce7a63"></polygon><polygon points="359.81 374.2 348.04 373.85 347.52 388.96 356.79 389.29 359.81 374.2" style="isolation:isolate;opacity:0.2"></polygon><path d="M355.91,400.07c1.24,3,2,5.52,7.33,8.86,1.14.74-.94,3.79-3.81,2.37-4.76-2.33-3.49-2.32-7.58-4.25-3.45-1.63-6-2.64-8.79-3.91l-.21-.1h0a1.13,1.13,0,0,1-.19-1.6l4.35-5.61a.67.67,0,0,1,.83-.2l6.66,3.11A2.69,2.69,0,0,1,355.91,400.07Z" style="fill:#263238"></path><path d="M306.17,296s-4.35,15.63,2.84,21.8c10.05,8.63,46.36,6,46.36,6-6.27,20.07-9.07,59.94-9.07,59.94h13.61s18.54-54.54,15.8-68.64-51.38-19.09-51.38-19.09Z" style="fill:#263238"></path><polygon points="367.06 383.49 382.5 387.38 385.65 380.77 368.69 375.96 367.06 383.49" style="fill:#7E57C2"></polygon><polygon points="344.95 385.68 360.7 386.49 362.33 379.56 344.95 378.75 344.95 385.68" style="fill:#7E57C2"></polygon><path d="M352.17,274.39c4-11.79,9-20.76,9.58-30.81-13.69-19.76-40.46-8.08-40.46-8.08C305.09,265.9,306.17,296,306.17,296c36.81,0,38.92-.63,38.92-.63S345.22,290.2,352.17,274.39Z" style="fill:#7E57C2"></path><path d="M339.81,234.92c.59,3.48,1.82,9.76,3.28,10.67,2,1.22,5-.49,5-.49s2.43,3.29,5,1.1a13.81,13.81,0,0,0,3.3-4.92,14.2,14.2,0,0,1-2.83,3.44c-2.6,2.18-5-1.1-5-1.1s-3,1.7-5,.49C342.24,243.32,340.7,238.35,339.81,234.92Z" style="isolation:isolate;opacity:0.2"></path><polygon points="343.11 230.12 346.76 231.37 343.9 233.88 343.11 230.12" style="fill:#7E57C2"></polygon><polygon points="343.11 230.12 346.76 231.37 343.9 233.88 343.11 230.12" style="opacity:0.2"></polygon><path d="M354.71,233.88l1,3s-5.22,5.46-6.72,5.52-5.9-10.27-5.9-10.27c5.81-2.63,5.27-5.52,5.27-5.52Z" style="fill:#ce7a63"></path><path d="M352.81,239.67c1.54-1.41,2.92-2.84,2.92-2.84l-1-3-5.65-6.53C348.34,230.19,347.62,236.13,352.81,239.67Z" style="isolation:isolate;opacity:0.2"></path><path d="M357.69,239a17.15,17.15,0,0,1-4.08,5.81c-2.61,2.18-5-1.09-5-1.09s-3,1.69-5,.48S339,231.89,339,231.89l4.11-1.77,5.66,12,7.63-6.31Z" style="fill:#7E57C2"></path><path d="M348.16,216.47a10.12,10.12,0,0,1,15.13-8.84c7.26,3.91,7.46,15.33,5.3,22A10,10,0,0,1,351.18,233c-3.56-4.38-3.1-8.87-3-16.58Z" style="fill:#ce7a63"></path><path d="M361.68,221.25c.42,0,.68.61.57,1.22s-.48,1-.89,1-.67-.61-.57-1.22S361.26,221.22,361.68,221.25Z" style="fill:#263238"></path><path d="M368.61,222.55c.43,0,.69.59.59,1.21s-.49,1-.91,1-.66-.6-.57-1.22S368.19,222.5,368.61,222.55Z" style="fill:#263238"></path><path d="M359.82,219.79a2.84,2.84,0,0,1,2.56-.47h0a.36.36,0,0,0,.45-.22h0a.39.39,0,0,0-.22-.47,3.59,3.59,0,0,0-3.28.64h0a.32.32,0,0,0,.11.58A.32.32,0,0,0,359.82,219.79Z" style="fill:#263238"></path><path d="M370.36,221.74h0a.37.37,0,0,0,.12-.5,3.73,3.73,0,0,0-2.79-1.89h0a.35.35,0,0,0-.33.27h0a.36.36,0,0,0,.27.44,3.08,3.08,0,0,1,2.24,1.57.35.35,0,0,0,.28.19A.4.4,0,0,0,370.36,221.74Z" style="fill:#263238"></path><path d="M364.5,229.37a3.62,3.62,0,0,0,3,0,24.07,24.07,0,0,1-2-5.88Z" style="fill:#ba4d3c"></path><path d="M347.68,221.46c-3-10.9,1.85-13.74,7.09-15.7s8.15-.08,9.82,1.76c.52.58,1.56,2.32-1.8,2.55a26.33,26.33,0,0,1-6.07-.47,2.21,2.21,0,0,0-2.14.84c-1.16,1.52-3,4.36-3,6.84a6.48,6.48,0,0,1-1.94,5.12Z" style="fill:#263238"></path><path d="M343.9,276.24h0a1.32,1.32,0,1,1-1.33,1.31A1.31,1.31,0,0,1,343.91,276.24Z" style="fill:#7E57C2"></path><path d="M341,290.2h0a1.32,1.32,0,1,1,0,2.64,1.33,1.33,0,0,1-1.32-1.33A1.31,1.31,0,0,1,341,290.2Z" style="fill:#7E57C2"></path><path d="M347.76,219c2.12.38,3.14,3.37,3.16,5.33s-1.5,3.69-3.37,2.44a6.88,6.88,0,0,1-2.8-4.14C344.34,220.52,345.65,218.58,347.76,219Z" style="fill:#ce7a63"></path><path d="M357.44,229.26a37.38,37.38,0,0,1,6.66,2.59,4.19,4.19,0,0,1-5.24.72A2.45,2.45,0,0,1,357.44,229.26Z" style="fill:#263238"></path><path d="M360.51,232a4.91,4.91,0,0,0-3-.53,2.92,2.92,0,0,0,1.33,1.14,4.88,4.88,0,0,0,3,.53A2.77,2.77,0,0,0,360.51,232Z" style="fill:#a02724"></path><path d="M357.68,229.32a1.07,1.07,0,0,0,.42,1.05,27.2,27.2,0,0,0,4.39,1.59,1.47,1.47,0,0,0,1.4-.2A42.91,42.91,0,0,0,357.68,229.32Z" style="fill:#fff"></path><rect x="365.32" y="299.85" width="18.1" height="2.91" transform="translate(747.13 604.6) rotate(-179.69)" style="fill:#263238"></rect><path d="M342.43,299.74h23a1.36,1.36,0,0,1,1.36,1.36v1.54a0,0,0,0,1,0,0H342.43a0,0,0,0,1,0,0v-2.91A0,0,0,0,1,342.43,299.74Z" transform="translate(707.63 604.28) rotate(-179.69)" style="fill:#263238"></path><path d="M342.43,299.74h23a1.36,1.36,0,0,1,1.36,1.36v1.54a0,0,0,0,1,0,0H342.43a0,0,0,0,1,0,0v-2.91A0,0,0,0,1,342.43,299.74Z" transform="translate(707.63 604.28) rotate(-179.69)" style="fill:#fff;opacity:0.30000000000000004"></path><rect x="360.25" y="300.72" width="2.91" height="1.03" transform="translate(721.8 604.4) rotate(-179.69)" style="fill:#263238"></rect><rect x="355.72" y="300.69" width="2.91" height="1.03" transform="translate(712.73 604.34) rotate(-179.69)" style="fill:#263238"></rect><polygon points="370.28 299.82 368.35 299.81 376.05 273.59 377.98 273.6 370.28 299.82" style="fill:#263238"></polygon><polygon points="370.28 299.82 368.35 299.81 376.05 273.59 377.98 273.6 370.28 299.82" style="fill:#fff;opacity:0.30000000000000004"></polygon><polygon points="369.57 299.82 403.54 300 411.24 273.77 377.27 273.59 369.57 299.82" style="fill:#263238"></polygon><polygon points="369.57 299.82 403.54 300 411.24 273.77 377.27 273.59 369.57 299.82" style="fill:#fff;opacity:0.6000000000000001"></polygon><path d="M367.91,299.81l35.36.19c.59,0,1.07.66,1.07,1.46s-.49,1.45-1.09,1.45l-35.36-.19c-.59,0-1.07-.66-1.07-1.46S367.31,299.81,367.91,299.81Z" style="fill:#263238"></path><path d="M367.91,299.81l35.36.19c.59,0,1.07.66,1.07,1.46s-.49,1.45-1.09,1.45l-35.36-.19c-.59,0-1.07-.66-1.07-1.46S367.31,299.81,367.91,299.81Z" style="fill:#fff;opacity:0.5"></path><path d="M366.82,301.26c0,.8.48,1.45,1.07,1.46s1.08-.65,1.09-1.45-.48-1.46-1.07-1.46S366.83,300.46,366.82,301.26Z" style="fill:#263238"></path><path d="M366.82,301.26c0,.8.48,1.45,1.07,1.46s1.08-.65,1.09-1.45-.48-1.46-1.07-1.46S366.83,300.46,366.82,301.26Z" style="fill:#fff;opacity:0.30000000000000004"></path><path d="M333.43,275.53c-1.63-2.24-3.36-10.54-4.57-17.4l1.57-.3-.37-2.84-.82.15c-.57-5.36-2.79-21.48-8.8-18-1.75,3.4-3.29,6.82-4.63,10.2a42.07,42.07,0,0,0,.86,10.07l-1,.18.92,2.87,2.13-.4c1.27,6.62,3.12,15,4.84,18.32,2.26,4.36,12,11.64,18.52,15.18,7.33-1.3,9-2.22,9-2.22a3.86,3.86,0,0,1-.51-.9l-1.18.17S336.34,279.54,333.43,275.53Z" style="opacity:0.2"></path><path d="M331.64,248.38s2.14,23.37,4.86,27.51,15.25,15.84,15.25,15.84l8.3-.82,5.28,5.49L361.2,299l-4.32-2.19a42.44,42.44,0,0,1-7.5-.17c-4.19-.46-20.12-12.34-22.88-18.34s-5.17-27.67-5.17-27.67Z" style="fill:#ce7a63"></path><path d="M333.5,253.42l-.83.15c-.57-5.46-2.86-22.06-9.11-17.8-6,4.1-4.33,15.74-3.45,20.09l-1,.18.92,2.87,13.84-2.65Z" style="fill:#7E57C2"></path></g><g id="freepik--Bags--inject-228"><path d="M131.22,333.56l-2.39-.13.56-10.84a14.28,14.28,0,0,1,14.08-13.37,12.7,12.7,0,0,1,12.8,13.5l-.57,10.84-2.39-.13.57-10.84a10.31,10.31,0,0,0-10.41-11,11.85,11.85,0,0,0-11.68,11.11Z" style="fill:#263238"></path><polygon points="182.49 328.74 111.82 328.74 109.42 412.59 119.9 410.19 130.38 412.59 184.89 412.59 182.49 328.74" style="fill:#7E57C2"></polygon><polygon points="182.49 328.74 111.82 328.74 109.42 412.59 119.9 410.19 130.38 412.59 184.89 412.59 182.49 328.74" style="fill:#fff;opacity:0.6000000000000001"></polygon><polygon points="130.38 412.59 119.9 410.19 109.42 412.59 111.82 328.74 127.99 328.74 130.38 412.59" style="fill:#7E57C2"></polygon><polygon points="130.38 412.59 119.9 410.19 109.42 412.59 111.82 328.74 127.99 328.74 130.38 412.59" style="fill:#fff;opacity:0.30000000000000004"></polygon><path d="M167.53,333.56,167,322.72a11.85,11.85,0,0,0-11.69-11.11,10.31,10.31,0,0,0-10.4,11l.57,10.84-2.39.13-.57-10.84a12.69,12.69,0,0,1,12.79-13.5,14.27,14.27,0,0,1,14.08,13.37l.57,10.84Z" style="fill:#263238"></path><g style="opacity:0.2"><path d="M167.53,333.56,167,322.72a11.85,11.85,0,0,0-11.69-11.11,10.31,10.31,0,0,0-10.4,11l.57,10.84-2.39.13-.57-10.84a12.69,12.69,0,0,1,12.79-13.5,14.27,14.27,0,0,1,14.08,13.37l.57,10.84Z" style="fill:#fff"></path></g><rect x="138.74" y="359.36" width="35.54" height="7.99" rx="1.34" style="fill:#fff"></rect><path d="M98.74,359.61l-1.61-.09.38-7.26a9.57,9.57,0,0,1,9.44-9,8.51,8.51,0,0,1,8.58,9l-.38,7.27-1.6-.09.38-7.26a6.92,6.92,0,0,0-7-7.36,7.94,7.94,0,0,0-7.83,7.44Z" style="fill:#263238"></path><polygon points="133.11 356.38 85.73 356.38 84.13 412.59 91.15 410.98 98.18 412.59 134.72 412.59 133.11 356.38" style="fill:#7E57C2"></polygon><polygon points="98.18 412.59 91.15 410.98 84.13 412.59 85.73 356.38 96.57 356.38 98.18 412.59" style="fill:#7E57C2"></polygon><polygon points="98.18 412.59 91.15 410.98 84.13 412.59 85.73 356.38 96.57 356.38 98.18 412.59" style="opacity:0.2"></polygon><path d="M123.08,359.61l-.38-7.27a8,8,0,0,0-7.84-7.44,6.9,6.9,0,0,0-7,7.36l.38,7.26-1.6.09-.39-7.27a8.52,8.52,0,0,1,8.58-9,9.57,9.57,0,0,1,9.44,9l.38,7.26Z" style="fill:#263238"></path><g style="opacity:0.2"><path d="M123.08,359.61l-.38-7.27a8,8,0,0,0-7.84-7.44,6.9,6.9,0,0,0-7,7.36l.38,7.26-1.6.09-.39-7.27a8.52,8.52,0,0,1,8.58-9,9.57,9.57,0,0,1,9.44,9l.38,7.26Z" style="fill:#fff"></path></g><rect x="103.78" y="376.91" width="23.82" height="5.35" rx="1.34" style="fill:#fff"></rect></g></svg>