<svg xmlns="http://www.w3.org/2000/svg" viewBox="0 0 500 500"><g id="freepik--big-box--inject-38"><rect x="272.35" y="239" width="139.92" height="178.01" style="fill:#263238"></rect><rect x="272.35" y="239" width="139.92" height="178.01" style="fill:#fff;opacity:0.30000000000000004"></rect><rect x="331.46" y="245.08" width="17.68" height="13.14" style="fill:#fff"></rect><rect x="333.74" y="247.71" width="9.6" height="0.57" style="fill:#407BFF"></rect><rect x="333.74" y="249.68" width="4.8" height="0.57" style="fill:#407BFF"></rect><rect x="333.74" y="251.65" width="7.32" height="0.57" style="fill:#407BFF"></rect><rect x="276.95" y="395.96" width="17.68" height="13.14" style="fill:#fff"></rect><rect x="279.23" y="398.59" width="9.6" height="0.57" style="fill:#407BFF"></rect><rect x="279.23" y="400.56" width="4.8" height="0.57" style="fill:#407BFF"></rect><rect x="279.23" y="402.53" width="7.32" height="0.57" style="fill:#407BFF"></rect><rect x="401.06" y="245.08" width="7.35" height="9.61" style="fill:#263238"></rect><rect x="401.06" y="256.63" width="7.35" height="9.61" style="fill:#263238"></rect><polygon points="406.73 249.97 404.73 247.18 402.73 249.97 404 249.97 404 252.58 405.47 252.58 405.47 249.97 406.73 249.97" style="fill:#fff"></polygon><path d="M407.16,258.77H405l-.11.5h.35l-.56,1.57.21-1.26h-.41l.09-.81h-2.3a2.66,2.66,0,0,0,2.18,2.76v2.22c-.52.08-.91.39-.91.77h2.31c0-.38-.4-.69-.92-.77v-2.22A2.66,2.66,0,0,0,407.16,258.77Z" style="fill:#fff"></path><rect x="272.35" y="239" width="83.02" height="178.01" style="fill:#fff;opacity:0.2;isolation:isolate"></rect><polygon points="412.27 325.44 386.92 325.44 386.92 239 384.37 239 384.37 325.44 312.9 325.44 312.9 239 310.34 239 310.34 325.44 272.35 325.44 272.35 328 310.34 328 310.34 417.01 312.9 417.01 312.9 328 384.37 328 384.37 417.01 386.92 417.01 386.92 328 412.27 328 412.27 325.44" style="fill:#407BFF"></polygon><polygon points="412.27 325.44 386.92 325.44 386.92 239 384.37 239 384.37 325.44 312.9 325.44 312.9 239 310.34 239 310.34 325.44 272.35 325.44 272.35 328 310.34 328 310.34 417.01 312.9 417.01 312.9 328 384.37 328 384.37 417.01 386.92 417.01 386.92 328 412.27 328 412.27 325.44" style="fill:#407BFF"></polygon><polygon points="412.27 325.44 386.92 325.44 386.92 239 384.37 239 384.37 325.44 312.9 325.44 312.9 239 310.34 239 310.34 325.44 272.35 325.44 272.35 328 310.34 328 310.34 417.01 312.9 417.01 312.9 328 384.37 328 384.37 417.01 386.92 417.01 386.92 328 412.27 328 412.27 325.44" style="opacity:0.2;isolation:isolate"></polygon><polygon points="412.27 325.44 412.27 328 386.92 328 386.92 417.01 384.36 417.01 384.36 328 355.37 328 355.37 325.44 384.36 325.44 384.36 239 386.92 239 386.92 325.44 412.27 325.44" style="opacity:0.2;isolation:isolate"></polygon></g></svg>