<svg xmlns="http://www.w3.org/2000/svg" viewBox="0 0 500 500"><g id="freepik--Boxes--inject-38"><rect x="83.73" y="289.64" width="99.66" height="58.91" style="fill:#407BFF"></rect><rect x="83.73" y="289.64" width="99.66" height="58.91" style="fill:#fff;opacity:0.4;isolation:isolate"></rect><rect x="83.73" y="289.64" width="42.73" height="58.91" style="fill:#fff;opacity:0.2;isolation:isolate"></rect><rect x="86.44" y="292.88" width="7.09" height="9.26" style="fill:#263238"></rect><rect x="95.31" y="292.88" width="7.09" height="9.26" style="fill:#263238"></rect><polygon points="91.91 297.6 89.98 294.91 88.05 297.6 89.27 297.6 89.27 300.12 90.69 300.12 90.69 297.6 91.91 297.6" style="fill:#fff"></polygon><path d="M101.19,295h-2l-.11.48h.34l-.54,1.51.2-1.21h-.4l.09-.78H96.52a2.55,2.55,0,0,0,2.1,2.65v2.15c-.5.08-.88.37-.88.74H100c0-.37-.39-.66-.89-.74V297.6A2.55,2.55,0,0,0,101.19,295Z" style="fill:#fff"></path><rect x="162.31" y="332.04" width="17.04" height="12.66" style="fill:#263238"></rect><rect x="164.51" y="334.58" width="9.25" height="0.55" style="fill:#407BFF"></rect><rect x="164.51" y="336.48" width="4.62" height="0.55" style="fill:#407BFF"></rect><rect x="164.51" y="338.37" width="7.06" height="0.55" style="fill:#407BFF"></rect><rect x="66.36" y="348.17" width="128.57" height="58.91" style="fill:#407BFF"></rect><rect x="66.36" y="348.17" width="71.64" height="58.91" style="fill:#fff;opacity:0.2;isolation:isolate"></rect><rect x="92.89" y="348.17" width="12.2" height="3.91" style="fill:#263238"></rect><rect x="92.89" y="403.01" width="12.2" height="3.91" style="fill:#263238"></rect><rect x="142.31" y="351.42" width="7.09" height="9.26" style="fill:#263238"></rect><rect x="151.18" y="351.42" width="7.09" height="9.26" style="fill:#263238"></rect><polygon points="147.78 356.13 145.85 353.44 143.92 356.13 145.14 356.13 145.14 358.65 146.56 358.65 146.56 356.13 147.78 356.13" style="fill:#fff"></polygon><path d="M157.06,353.48h-2l-.11.48h.34l-.54,1.52.2-1.22h-.4l.09-.78h-2.21a2.56,2.56,0,0,0,2.1,2.66v2.14c-.5.08-.88.37-.88.74h2.23c0-.37-.39-.66-.89-.74v-2.14A2.57,2.57,0,0,0,157.06,353.48Z" style="fill:#fff"></path><rect x="70.55" y="387.51" width="17.04" height="12.66" style="fill:#fff"></rect><rect x="72.75" y="390.05" width="9.25" height="0.55" style="fill:#407BFF"></rect><rect x="72.75" y="391.95" width="4.62" height="0.55" style="fill:#407BFF"></rect><rect x="72.75" y="393.84" width="7.06" height="0.55" style="fill:#407BFF"></rect></g></svg>