<svg xmlns="http://www.w3.org/2000/svg" viewBox="0 0 500 500"><g id="freepik--Shadow--inject-134"><ellipse id="freepik--path--inject-134" cx="250" cy="416.24" rx="193.89" ry="11.32" style="fill:#f5f5f5"></ellipse></g><g id="freepik--Character--inject-134"><polygon points="313.54 408.01 305.52 407.89 303.67 389.27 311.7 389.39 313.54 408.01" style="fill:#ffb573"></polygon><polygon points="354.83 408.04 346.81 408.04 340.56 389.45 348.58 389.45 354.83 408.04" style="fill:#ffb573"></polygon><path d="M345.74,407.11h9.78a.71.71,0,0,1,.69.55l1.58,7.14a1.16,1.16,0,0,1-1.17,1.42c-3.15-.05-5.45-.24-9.41-.24-2.44,0-9.8.26-13.17.26s-3.81-3.33-2.43-3.64c6.18-1.35,10.84-3.21,12.82-5A2,2,0,0,1,345.74,407.11Z" style="fill:#263238"></path><path d="M305.59,407l8.76.14a.7.7,0,0,1,.68.55l1.47,7.16a1.16,1.16,0,0,1-1.17,1.41c-3.17-.1-7.73-.36-11.71-.42-4.64-.07-8.66.12-14.11,0-3.29-.05-4.15-3.39-2.77-3.67,6.3-1.28,11.43-1.35,16.91-4.61A3.74,3.74,0,0,1,305.59,407Z" style="fill:#263238"></path><path d="M310.52,168.83a180.15,180.15,0,0,1-8.47,16.48c-1.55,2.67-3.17,5.32-4.93,7.92a87.35,87.35,0,0,1-5.68,7.69l-.79.94-.4.47c-.14.16-.23.28-.51.57a9.67,9.67,0,0,1-4.26,2.78,8,8,0,0,1-3.15.33,8.4,8.4,0,0,1-2.71-.7,11.54,11.54,0,0,1-3.33-2.29,21.32,21.32,0,0,1-3.5-4.6,46.9,46.9,0,0,1-2.27-4.46A88.79,88.79,0,0,1,265,176l5.76-1.79c1.23,2.62,2.5,5.33,3.83,7.91s2.69,5.16,4.16,7.53A37.71,37.71,0,0,0,281,193a13.29,13.29,0,0,0,2.2,2.36c.3.23.53.28.41.18a1.51,1.51,0,0,0-.54-.17,2.47,2.47,0,0,0-.93.07c-.6.19-.69.33-.62.2l1.11-1.53a141.54,141.54,0,0,0,8.86-14.69c2.75-5.11,5.43-10.45,7.94-15.62Z" style="fill:#ffb573"></path><path d="M313.86,163.8c2.16,7.36-13.07,27.43-13.07,27.43l-15.37-9.88a97.81,97.81,0,0,1,10.65-18C302.36,155.28,311.48,155.72,313.86,163.8Z" style="fill:#AF1E1D"></path><path d="M313.86,163.8c2.16,7.36-13.07,27.43-13.07,27.43l-15.37-9.88a97.81,97.81,0,0,1,10.65-18C302.36,155.28,311.48,155.72,313.86,163.8Z" style="opacity:0.2"></path><path d="M304.49,172.44c-3.16,1.35-7.81,9-10.23,14.6l6.52,4.19a122.8,122.8,0,0,0,9.8-15.36C308.52,173.61,306.16,171.73,304.49,172.44Z" style="opacity:0.2"></path><path d="M270.62,177.09l2-9.05-9.13-.07s-2.44,6.8,2.47,10Z" style="fill:#ffb573"></path><polygon points="271.55 159.56 264.23 162.19 263.46 167.97 272.59 168.04 271.55 159.56" style="fill:#ffb573"></polygon><polygon points="303.68 389.27 304.63 398.87 312.65 399 311.71 389.4 303.68 389.27" style="opacity:0.2"></polygon><polygon points="348.58 389.46 340.56 389.46 343.78 399.04 351.81 399.04 348.58 389.46" style="opacity:0.2"></polygon><path d="M349.64,160.54c-8.65,30.49-6.9,62.85-7.68,69.4-6.28-.45-29.93-2.22-42.82-3.18-5.62-45.69,5.62-69.16,5.62-69.16s2.76-.53,6.5-.92c1.17-.12,2.44-.22,3.76-.29.73,0,1.47-.07,2.22-.08a160.25,160.25,0,0,1,18.2,1.35c1.14.14,2.3.32,3.43.5s2.06.37,3,.56C346.27,159.59,349.64,160.54,349.64,160.54Z" style="fill:#AF1E1D"></path><path d="M349.64,160.54c-8.65,30.49-6.9,62.85-7.68,69.4-6.28-.45-29.93-2.22-42.82-3.18-5.62-45.69,5.62-69.16,5.62-69.16s2.76-.53,6.5-.92c1.17-.12,2.44-.22,3.76-.29.73,0,1.47-.07,2.22-.08a160.25,160.25,0,0,1,18.2,1.35c1.14.14,2.3.32,3.43.5s2.06.37,3,.56C346.27,159.59,349.64,160.54,349.64,160.54Z" style="opacity:0.2"></path><path d="M340.5,173.62c-.77,2.95.11,16.41,3.19,19.73.42-4.31,1-8.81,1.72-13.41Z" style="opacity:0.2"></path><path d="M335.16,137c-1.58,5.77-3.53,16.42.28,20.63-3.42,2.93-7.85,6.27-14.82,6s-5.41-5-3.38-7.35c6.64-1.08,6.84-5.94,6-10.57Z" style="fill:#ffb573"></path><path d="M334.8,156s-2.88,4.75-14.46,7.64c1.92,1.78,2.85,6,2.85,6S338.3,166,337.84,157.5A10.16,10.16,0,0,0,334.8,156Z" style="fill:#263238"></path><path d="M316.22,168.55s1.52-3.66,4.12-4.91c-1.21-1.25-3-5-1.94-7.81a9.42,9.42,0,0,0-2.68.17S311.14,161.77,316.22,168.55Z" style="fill:#263238"></path><path d="M319.84,168.66c-.13.78-.59,1.36-1,1.28s-.66-.77-.52-1.55.6-1.37,1-1.29S320,167.87,319.84,168.66Z" style="fill:#263238"></path><path d="M319.16,173.16c-.07.8-.47,1.41-.9,1.37s-.72-.71-.65-1.5.47-1.41.9-1.37S319.23,172.37,319.16,173.16Z" style="fill:#263238"></path><path d="M330.32,140.59l-7,5.15a17.42,17.42,0,0,1,.32,3.27c2.53-.18,6.16-2.66,6.62-5.25A9.18,9.18,0,0,0,330.32,140.59Z" style="opacity:0.2"></path><path d="M319.1,115.21c-6.24-.14-7.5,14.94-3.45,17.57S330.78,115.46,319.1,115.21Z" style="fill:#263238"></path><path d="M336.51,128.27c-1.07,7.89-1.3,12.57-5.61,16.34-6.48,5.67-16,1.31-17.3-6.74-1.17-7.25.78-18.94,8.78-21.52A10.86,10.86,0,0,1,336.51,128.27Z" style="fill:#ffb573"></path><path d="M335.38,136c-4,2.11-8.62-19.73,2-18.59C350.72,118.83,343.41,131.79,335.38,136Z" style="fill:#263238"></path><path d="M317.57,117.36c0,4.89,15.87,9.75,21.31,8.08s6.81-6,3.89-9C337.83,111.27,317.57,107.78,317.57,117.36Z" style="fill:#263238"></path><path d="M318.21,118a9.35,9.35,0,0,0,2.29,4.32c-1.42-.08-2.83-2.09-3.28-3.26S318.21,118,318.21,118Z" style="fill:#263238"></path><path d="M339.44,137.28a7.55,7.55,0,0,1-4.95,3c-2.63.38-3.6-2.06-2.58-4.36.92-2.07,3.39-4.76,5.89-4.08S340.88,135.29,339.44,137.28Z" style="fill:#ffb573"></path><path d="M301.65,397l13.59.21s-4.54-53.69-3.31-78.67c.37-7.6,1.9-18.23,3.9-29.62,2.54-14.36,3.76-20.08,7-38.22,2.34-12.94,4.42-21.81,4.42-21.81l-28.15-2.1S287.2,291.47,287.48,316C287.76,341.43,301.65,397,301.65,397Z" style="fill:#263238"></path><path d="M317.38,246c-5.06,12.6-5.16,42.12-2.83,50.43.4-2.46.83-5,1.28-7.54,2.54-14.36,3.76-20.08,7-38.22.06-.36.13-.71.19-1.06A19.5,19.5,0,0,0,317.38,246Z" style="opacity:0.2"></path><path d="M314.33,227.89s2.48,67.69,4.37,91.13C320.76,344.7,340,397.18,340,397.18h14.7s-9.81-48-12.82-73c-3.43-28.4.06-94.26.06-94.26Z" style="fill:#263238"></path><polygon points="338.25 397.5 355.56 397.5 355.56 392.33 336.21 391.99 338.25 397.5" style="fill:#AF1E1D"></polygon><polygon points="299.94 397.26 316.13 397.51 316.21 392.28 298.11 391.72 299.94 397.26" style="fill:#AF1E1D"></polygon><path d="M324.32,129.59c-.05.65-.43,1.15-.85,1.11s-.73-.58-.68-1.22.43-1.14.85-1.11S324.37,129,324.32,129.59Z" style="fill:#263238"></path><path d="M317,129.05c0,.65-.43,1.14-.85,1.11s-.72-.58-.68-1.22.43-1.15.86-1.12S317.07,128.4,317,129.05Z" style="fill:#263238"></path><path d="M319.32,129.54a23.31,23.31,0,0,1-3.5,5.3,3.72,3.72,0,0,0,3,.8Z" style="fill:#ed893e"></path><path d="M321.46,137.57a5.28,5.28,0,0,0,3.8-1.84.19.19,0,0,0,0-.27.2.2,0,0,0-.27,0,5.12,5.12,0,0,1-4.32,1.69.19.19,0,0,0-.2.17.19.19,0,0,0,.17.21A6,6,0,0,0,321.46,137.57Z" style="fill:#263238"></path><path d="M326.75,127.4a.32.32,0,0,0,.18-.06.37.37,0,0,0,.11-.52,3.77,3.77,0,0,0-3-1.8.38.38,0,1,0,0,.76h0a3,3,0,0,1,2.33,1.45A.38.38,0,0,0,326.75,127.4Z" style="fill:#263238"></path><path d="M314.06,126.31a.4.4,0,0,0,.31-.19,3,3,0,0,1,2.27-1.56.37.37,0,0,0,.35-.4.37.37,0,0,0-.39-.36,3.82,3.82,0,0,0-2.89,1.93.38.38,0,0,0,.14.52A.42.42,0,0,0,314.06,126.31Z" style="fill:#263238"></path><path d="M343.08,408.52a9.67,9.67,0,0,0,2.1-.29.2.2,0,0,0,.15-.16.21.21,0,0,0-.09-.19c-.29-.18-2.88-1.77-3.77-1.32a.62.62,0,0,0-.33.54,1.17,1.17,0,0,0,.4,1A2.44,2.44,0,0,0,343.08,408.52Zm1.55-.56c-1.36.27-2.41.22-2.85-.15a.76.76,0,0,1-.26-.68.25.25,0,0,1,.12-.23C342.1,406.66,343.58,407.35,344.63,408Z" style="fill:#AF1E1D"></path><path d="M345.14,408.23a.19.19,0,0,0,.1,0,.2.2,0,0,0,.09-.17c0-.1-.2-2.42-1.13-3.18a1,1,0,0,0-.81-.24h0a.61.61,0,0,0-.61.49c-.17.9,1.44,2.66,2.27,3.11ZM343.52,405a.62.62,0,0,1,.43.17,4.49,4.49,0,0,1,.95,2.51c-.82-.63-1.85-2-1.75-2.48,0-.05,0-.17.28-.2h.09Z" style="fill:#AF1E1D"></path><path d="M304.78,408.06a.2.2,0,0,0,.13-.16.19.19,0,0,0-.1-.19c-.36-.2-3.56-1.88-4.54-1.36a.62.62,0,0,0-.32.51h0a1.06,1.06,0,0,0,.34.93c.86.79,3.17.51,4.47.27Zm-4.26-1.4c.6-.2,2.34.49,3.61,1.12-1.78.27-3.1.17-3.59-.27a.72.72,0,0,1-.22-.62.22.22,0,0,1,.13-.2Z" style="fill:#AF1E1D"></path><path d="M304.78,408.06l.05,0a.17.17,0,0,0,.08-.17c0-.09-.19-2.26-1.2-3.11a1.35,1.35,0,0,0-1-.34h0c-.53,0-.68.3-.72.52-.16.9,1.73,2.67,2.69,3.12A.23.23,0,0,0,304.78,408.06Zm-2.28-3.24.2,0h0a1,1,0,0,1,.77.26,4.45,4.45,0,0,1,1,2.49c-1-.61-2.26-2-2.17-2.54C302.33,405,302.34,404.87,302.5,404.82Zm.18-.22Z" style="fill:#AF1E1D"></path><path d="M351.7,165.54c2.8,5.62,5.31,11.24,7.62,17,1.17,2.88,2.25,5.81,3.31,8.76.52,1.49,1,3,1.5,4.48l.36,1.13.39,1.3c.28.89.44,1.78.65,2.66a49.08,49.08,0,0,1-.92,20.23,76.58,76.58,0,0,1-2.81,9.24c-.57,1.5-1.18,3-1.83,4.43s-1.31,2.87-2.12,4.37l-5.53-2.4c.77-2.73,1.55-5.68,2.1-8.55s1.06-5.77,1.38-8.63a59,59,0,0,0,.34-8.46,33.24,33.24,0,0,0-1.1-7.83c-.19-.59-.34-1.21-.57-1.77-.12-.29-.19-.53-.34-.88l-.42-1c-.56-1.37-1.17-2.74-1.75-4.11-1.17-2.76-2.44-5.49-3.66-8.24l-7.55-16.43Z" style="fill:#ffb573"></path><path d="M349.64,160.54c7.32,2.3,14.52,27.13,14.52,27.13l-16.94,7.41s-5.48-12-8.64-21.4C335.15,163.43,340.76,157.76,349.64,160.54Z" style="fill:#AF1E1D"></path><path d="M349.64,160.54c7.32,2.3,14.52,27.13,14.52,27.13l-16.94,7.41s-5.48-12-8.64-21.4C335.15,163.43,340.76,157.76,349.64,160.54Z" style="opacity:0.2"></path><path d="M352.77,235.39l-3.95,7.13,9.31,2.42s2.81-6.91-.51-9.11Z" style="fill:#ffb573"></path><polygon points="348.13 250.61 356.68 251.32 358.13 244.94 348.82 242.52 348.13 250.61" style="fill:#ffb573"></polygon></g><g id="freepik--Shield--inject-134"><polygon points="296.75 289.27 85.17 289.27 100.09 77.7 311.67 77.7 296.75 289.27" style="fill:#AF1E1D;opacity:0.19"></polygon><polygon points="132.84 289.27 102.41 289.27 178.22 77.7 208.65 77.7 132.84 289.27" style="fill:#fff;opacity:0.2"></polygon><polygon points="206.75 289.27 139.63 289.27 215.44 77.7 282.56 77.7 206.75 289.27" style="fill:#fff;opacity:0.2"></polygon><polygon points="100.65 113.83 94.45 113.39 97.19 74.59 136 74.59 136 80.81 102.98 80.81 100.65 113.83" style="fill:#AF1E1D"></polygon><polygon points="121.08 292.38 81.83 292.38 84.6 253.15 90.8 253.59 88.5 286.16 121.08 286.16 121.08 292.38" style="fill:#AF1E1D"></polygon><polygon points="312.23 113.83 306.04 113.39 308.33 80.81 275.75 80.81 275.75 74.59 315 74.59 312.23 113.83" style="fill:#AF1E1D"></polygon><polygon points="299.64 292.38 260.83 292.38 260.83 286.16 293.85 286.16 296.18 253.15 302.38 253.59 299.64 292.38" style="fill:#AF1E1D"></polygon><g style="opacity:0.30000000000000004"><path d="M194.25,258.07a1.25,1.25,0,0,1-.53-.13c-.06,0-1.53-.84-4-2.36-1-.63-2.26-1.4-3.63-2.27-4.35-2.83-8.54-5.81-12.47-8.86-1-.74-1.9-1.5-2.87-2.28-3.62-3-7-5.94-9.94-8.86-.76-.76-1.51-1.52-2.26-2.3a100.83,100.83,0,0,1-7.68-8.89c-.58-.75-1.14-1.52-1.69-2.3a68.79,68.79,0,0,1-5.43-8.93c-.38-.75-.76-1.54-1.11-2.33a48.37,48.37,0,0,1-3.06-9c-.18-.71-.34-1.48-.48-2.34-.11-.56-.2-1.15-.27-1.73-.31-2.29-.57-4.62-.82-7.14-.08-.75-.15-1.51-.22-2.26-.26-3-.48-5.93-.64-8.85V177c0-.66-.08-1.32-.11-2-.14-2.88-.24-5.85-.3-8.83l0-2.27c0-3.15,0-6.12,0-8.83,0-.76,0-1.52.05-2.27.07-3.26.18-6.23.31-8.83v-.17c0-.72.06-1.42.1-2.11.18-3.22.39-6.27.61-8.83.07-.87.13-1.61.2-2.27.23-2.52.4-3.93.4-3.93a1.09,1.09,0,0,1,1-1c.18,0,18.63-1.43,38.28-4.89,4-.7,7.86-1.46,11.52-2.25,5.39-1.18,10.32-2.46,14.67-3.81a1.1,1.1,0,0,1,.67,0c4.15,1.36,8.9,2.64,14.12,3.81,3.55.8,7.31,1.55,11.2,2.25,19.16,3.46,37.41,4.88,37.59,4.89a1.09,1.09,0,0,1,1,1.12s0,1.4-.15,3.93c0,.67-.07,1.43-.12,2.27-.15,2.57-.37,5.62-.64,8.83-.06.64-.12,1.28-.18,1.95l0,.33c-.23,2.61-.55,5.58-.93,8.82-.09.77-.18,1.52-.28,2.28-.34,2.72-.75,5.69-1.23,8.82l-.34,2.26c-.48,3-1,6-1.54,8.84-.12.64-.25,1.29-.38,1.94l-.07.34c-.57,2.9-1.2,5.88-1.88,8.83l-.54,2.28c-.61,2.52-1.2,4.85-1.82,7.13-.17.59-.34,1.17-.52,1.75-.27.85-.53,1.61-.81,2.33a56.71,56.71,0,0,1-4.32,9c-.45.77-.93,1.55-1.43,2.31a84.25,84.25,0,0,1-6.67,8.91c-.66.77-1.32,1.54-2,2.29a124.33,124.33,0,0,1-8.9,8.88q-1.29,1.16-2.58,2.28c-3.39,2.92-7.14,5.89-11.17,8.85-1.08.78-2.14,1.54-3.19,2.28-4.36,3.05-9,6-13.7,8.85-1.5.87-2.83,1.64-4,2.27-2.68,1.51-4.26,2.32-4.32,2.35A1.11,1.11,0,0,1,194.25,258.07ZM140.48,127.8c-.07.66-.17,1.66-.29,3-.07.66-.13,1.39-.19,2.19-.22,2.6-.43,5.63-.61,8.84,0,.68-.07,1.37-.11,2.09v.17c-.14,2.58-.24,5.53-.31,8.77,0,.74,0,1.49-.05,2.25,0,2.7,0,5.65,0,8.77l0,2.27c.06,2.95.16,5.9.3,8.75,0,.66.06,1.31.1,2l0,.3c.16,2.89.37,5.84.63,8.76.07.75.14,1.5.22,2.25.24,2.49.51,4.81.81,7.07.07.55.15,1.1.25,1.64.14.82.29,1.53.46,2.21a46.49,46.49,0,0,0,2.93,8.6c.34.75.69,1.5,1.06,2.22a67.23,67.23,0,0,0,5.26,8.66c.54.75,1.08,1.5,1.65,2.23a101.37,101.37,0,0,0,7.51,8.71c.74.76,1.48,1.51,2.23,2.25,2.92,2.87,6.21,5.8,9.78,8.72,1,.77,1.9,1.52,2.84,2.26,3.87,3,8,5.95,12.3,8.74,1.35.86,2.56,1.62,3.59,2.24,1.59,1,2.77,1.66,3.4,2,.67-.35,2-1,3.72-2,1.13-.63,2.44-1.39,3.92-2.26,4.68-2.79,9.24-5.73,13.55-8.75,1-.73,2.09-1.48,3.16-2.26,4-2.92,7.69-5.85,11-8.73.85-.74,1.7-1.49,2.54-2.26a122.33,122.33,0,0,0,8.76-8.72c.67-.74,1.32-1.48,2-2.23a81,81,0,0,0,6.5-8.68c.49-.74,1-1.49,1.38-2.23A54.7,54.7,0,0,0,255,199c.27-.69.52-1.41.77-2.22.18-.55.34-1.11.49-1.66.62-2.26,1.21-4.57,1.81-7.07.19-.75.36-1.5.54-2.25.67-2.93,1.3-5.88,1.86-8.76l.07-.35c.13-.64.25-1.28.37-1.92.54-2.84,1.06-5.79,1.53-8.77l.35-2.25c.47-3.11.88-6.06,1.22-8.77.1-.75.18-1.49.27-2.23.38-3.24.7-6.19.93-8.79l0-.33c.06-.66.12-1.31.17-1.94h0c.27-3.18.49-6.21.63-8.76.05-.84.09-1.59.13-2.26.05-1.22.09-2.18.11-2.83-4.16-.36-20.12-1.83-36.76-4.83-3.92-.71-7.71-1.47-11.29-2.27-5.15-1.16-9.85-2.42-14-3.76-4.33,1.34-9.21,2.6-14.53,3.76-3.68.8-7.58,1.56-11.6,2.27C160.8,126,144.45,127.47,140.48,127.8Z" style="fill:#AF1E1D"></path><ellipse cx="200.9" cy="162.71" rx="13.59" ry="12.67" transform="translate(-56.65 185.18) rotate(-43.99)" style="fill:#AF1E1D"></ellipse><polygon points="203.78 167.29 200.57 167.29 197.37 167.29 188.31 209.55 206.88 209.55 203.78 167.29" style="fill:#AF1E1D"></polygon><g style="opacity:0.2"><path d="M229.67,121.88H177.88c3.84-.68,7.73-1.43,11.56-2.27h29C222.15,120.45,225.93,121.2,229.67,121.88Z" style="fill:#AF1E1D"></path><path d="M267.1,132.94H138.9c.06-.84.12-1.59.19-2.27H267.22C267.19,131.35,267.15,132.1,267.1,132.94Z" style="fill:#AF1E1D"></path><path d="M266.46,141.73c-.06.74-.13,1.5-.2,2.28H138.18c0-.78.07-1.54.11-2.28Z" style="fill:#AF1E1D"></path><path d="M265.33,152.8c-.09.75-.18,1.51-.28,2.27H137.82c0-.76,0-1.52.05-2.27Z" style="fill:#AF1E1D"></path><path d="M263.83,163.87c-.12.75-.23,1.5-.35,2.26H137.83c0-.76,0-1.51,0-2.26Z" style="fill:#AF1E1D"></path><path d="M262,174.93l-.45,2.27H138.25c0-.76-.09-1.52-.12-2.27Z" style="fill:#AF1E1D"></path><path d="M259.63,186l-.54,2.26h-120c-.08-.75-.15-1.51-.22-2.26Z" style="fill:#AF1E1D"></path><path d="M256.77,197.06c-.24.76-.5,1.52-.79,2.27H140.65c-.19-.75-.34-1.51-.47-2.27Z" style="fill:#AF1E1D"></path><path d="M251.74,208.12c-.44.76-.92,1.53-1.4,2.27H144.73c-.38-.74-.74-1.51-1.08-2.27Z" style="fill:#AF1E1D"></path><path d="M243.75,219.19c-.65.76-1.3,1.52-2,2.26h-90c-.58-.74-1.13-1.5-1.67-2.26Z" style="fill:#AF1E1D"></path><path d="M232.93,230.25c-.85.77-1.7,1.53-2.56,2.27H161.58c-.75-.74-1.5-1.5-2.24-2.27Z" style="fill:#AF1E1D"></path><path d="M219.27,241.31c-1.08.78-2.13,1.54-3.18,2.27H174.3c-.94-.73-1.89-1.49-2.86-2.27Z" style="fill:#AF1E1D"></path><path d="M202.47,252.38c-1.49.87-2.81,1.63-3.94,2.26H190.3c-1-.63-2.26-1.39-3.62-2.26Z" style="fill:#AF1E1D"></path></g></g></g></svg>