<svg xmlns="http://www.w3.org/2000/svg" viewBox="0 0 500 500"><g id="freepik--Floor--inject-180"><path d="M35.47,458.66c137.44-.61,291.62-.61,429.06,0-137.44.62-291.62.62-429.06,0Z" style="fill:#263238"></path></g><g id="freepik--Plant--inject-180"><path d="M90.33,377.61c7.08-14.55,19.46-22,33.42-17.89s16.12,23.59,5.7,28.5-20.84-9.44-26.34-12.38S90.33,377.61,90.33,377.61Z" style="fill:#BA68C8"></path><path d="M83.48,416.32c0-1.75.11-3.5.17-5.26q.18-5.25.37-10.5c.24-6.4.93-12.69,3.58-18.59A28.89,28.89,0,0,1,98.83,369a23.65,23.65,0,0,1,5.9-2.54,13.71,13.71,0,0,1,6.88-3.78,27.93,27.93,0,0,1,9.82-.25c.12,0,.11.2,0,.18a23.68,23.68,0,0,0-9.29.67,19.31,19.31,0,0,0-3.74,1.45,18.5,18.5,0,0,0-2.17,1.37,20,20,0,0,1,8.53.09,19,19,0,0,1,3,1,8.74,8.74,0,0,1,2.33-.19,13.5,13.5,0,0,1,3,.43,22.88,22.88,0,0,1,5.74,2.5.09.09,0,0,1-.1.16,21.18,21.18,0,0,0-5.6-2.11,17.55,17.55,0,0,0-2.88-.42,14.22,14.22,0,0,0-1.6,0,18.51,18.51,0,0,1,9,9c0,.11-.11.2-.16.09a17,17,0,0,0-11.5-9.22c-.31-.08-.62-.12-.93-.18a13.78,13.78,0,0,1,.15,1.41c.09.71.21,1.41.35,2.11A34.74,34.74,0,0,0,116.7,375a32.84,32.84,0,0,0,1.69,4.13,19.25,19.25,0,0,0,2.36,4c.08.1-.08.22-.15.11-.84-1.32-1.82-2.53-2.58-3.89a29.32,29.32,0,0,1-1.89-4.06,27.48,27.48,0,0,1-1.25-4.36q-.22-1.17-.36-2.37a5,5,0,0,1-.09-1.44,19.15,19.15,0,0,0-5-.1c.62,3.47,1.29,7.08,3.23,10.1.06.1-.1.19-.16.09a40.56,40.56,0,0,1-2.4-5,18.71,18.71,0,0,1-1.2-5.17,23.14,23.14,0,0,0-8.19,2.75,27.12,27.12,0,0,0-10.91,11.94,44.87,44.87,0,0,0-4,17.1c-.46,7.43-.56,14.91-1.3,22.33,0,.48-.82.64-.91.1A26.71,26.71,0,0,1,83.48,416.32Z" style="fill:#263238"></path><path d="M99.84,367.87a8.17,8.17,0,0,1,1.61-1.49c.58-.48,1.17-.94,1.79-1.36a13.65,13.65,0,0,1,4-1.87c.12,0,.16.16,0,.18a10.76,10.76,0,0,0-4,1.95q-.89.66-1.71,1.38A10.1,10.1,0,0,1,100,368,.12.12,0,0,1,99.84,367.87Z" style="fill:#263238"></path><path d="M122.42,373.14a43.54,43.54,0,0,1,3.25,4.29,26.2,26.2,0,0,1,2.41,4.79s-.06.08-.08,0a57.55,57.55,0,0,0-5.71-9C122.21,373.18,122.35,373.05,122.42,373.14Z" style="fill:#263238"></path><path d="M107.2,371.7a10.12,10.12,0,0,0,.8,2.63,16.41,16.41,0,0,0,1.35,2.33s0,.1-.09.06a9.47,9.47,0,0,1-2.24-5C107,371.63,107.18,371.58,107.2,371.7Z" style="fill:#263238"></path><path d="M84.47,378s-10-12.59-29.36-8.13c-18.38,4.25-26.86,37.95-8.29,42s15.3-27.15,22.07-32.45C73.86,375.48,81,376.31,84.47,378Z" style="fill:#BA68C8"></path><path d="M40.18,388.24a37.8,37.8,0,0,1,4-3.05,17.07,17.07,0,0,1,4.25-2.12,25.45,25.45,0,0,1,2.52-3.25,25.07,25.07,0,0,1,5.85-4.65l-.58,0c-1,0-2.05,0-3.07,0a17.31,17.31,0,0,0-6,1.49.09.09,0,0,1-.08-.17,26.94,26.94,0,0,1,6-1.79,16.07,16.07,0,0,1,3-.26c.54,0,1.08,0,1.62.09l.31,0a25.57,25.57,0,0,1,5.58-2.05c-.18-.05-.36-.11-.54-.15a25.61,25.61,0,0,0-2.87-.47,22.37,22.37,0,0,0-5.78.09c-.12,0-.15-.17,0-.18a35.75,35.75,0,0,1,5.85-.24,24.62,24.62,0,0,1,4.87.63,25.62,25.62,0,0,1,3.52-.4c6.74-.29,14.1,2.23,18.25,7.77s5,12.95,5.69,19.64a148.42,148.42,0,0,1,.74,28.11c0,.56-.82.46-.83-.07-.26-8-.54-15.9-1.3-23.82-.35-3.66-.74-7.34-1.35-11a32,32,0,0,0-2.67-9,16.49,16.49,0,0,0-6.52-7,22,22,0,0,0-9.25-2.84,24.79,24.79,0,0,0-8.67.81,6.12,6.12,0,0,1,0,1.71,9.41,9.41,0,0,1-.43,2.11,10.77,10.77,0,0,1-.81,1.88c-.36.66-.81,1.26-1.2,1.89-.07.1-.23,0-.16-.1a8.64,8.64,0,0,0,1.5-3.82,16.3,16.3,0,0,0,.24-2c0-.5,0-1,0-1.49A25.46,25.46,0,0,0,53.42,379c-.47.38-.93.78-1.37,1.19a9.39,9.39,0,0,1,1.64,2,20.47,20.47,0,0,1,1.72,3.06A26.56,26.56,0,0,1,57.2,392c0,.12-.17.15-.18,0a19.85,19.85,0,0,0-2.2-6.37,25.4,25.4,0,0,0-1.72-2.83c-.32-.47-.66-.93-1-1.37-.19-.24-.4-.49-.58-.75A26.64,26.64,0,0,0,46,388.43h0a13.23,13.23,0,0,1,2.27,3.26,32.42,32.42,0,0,1,1.81,3.87,65.4,65.4,0,0,1,2.31,7.89c0,.11-.16.15-.19,0a33.1,33.1,0,0,0-2.74-7.77c-.57-1.21-1.19-2.4-1.83-3.58a35.41,35.41,0,0,1-1.82-3.38,24.9,24.9,0,0,0-2.2,9c0,.12-.2.1-.19,0A31.3,31.3,0,0,1,47.83,384c-1.19.51-2.37,1-3.51,1.61a19.78,19.78,0,0,0-4,2.82C40.21,388.46,40.09,388.32,40.18,388.24Z" style="fill:#263238"></path><path d="M54.36,389c.58,1.9,1.31,3.76,1.83,5.69a21.47,21.47,0,0,1,.86,5.68c0,.06-.09.06-.09,0A55.8,55.8,0,0,0,54.19,389,.09.09,0,1,1,54.36,389Z" style="fill:#263238"></path><path d="M42.11,384.22a10.5,10.5,0,0,1,2.56-1.83,18,18,0,0,1,3-1.05c.11,0,.15.16,0,.18a11.67,11.67,0,0,0-2.85,1.18,20.79,20.79,0,0,0-2.63,1.61A.06.06,0,1,1,42.11,384.22Z" style="fill:#263238"></path><path d="M75,361.15s-1.85-22.63-18.67-30c-14-6.12-22.08,9.66-12.15,19.32C52.16,358.32,65,354.8,75,361.15Z" style="fill:#BA68C8"></path><path d="M47.24,335.57a74,74,0,0,1,7.48,3.54,57.25,57.25,0,0,1,5.8,3.86c-.28-.57-.52-1.17-.8-1.73-.44-.88-.91-1.73-1.43-2.56a24.35,24.35,0,0,0-3.7-4.69c-.09-.08,0-.21.13-.13a37.38,37.38,0,0,1,3.9,4.54,27.32,27.32,0,0,1,1.6,2.56,10.42,10.42,0,0,1,1.13,2.61l.18.13a55.84,55.84,0,0,1,8,7.86c0-.22-.1-.44-.16-.64-.31-1.11-.65-2.2-1-3.29a28.43,28.43,0,0,0-3-6.6c-.07-.1.1-.19.16-.09A52.87,52.87,0,0,1,69,347.38a23.15,23.15,0,0,1,1.16,3.34,15.38,15.38,0,0,1,.55,2.27c.73.93,1.45,1.87,2.13,2.83C80.1,366.1,83.72,378.53,84.59,391a106.33,106.33,0,0,1,.19,11.15,69.74,69.74,0,0,1-1,11.18c0,.24-.42.17-.41-.06.08-3.27.42-6.53.48-9.8a97.61,97.61,0,0,0-.31-9.82,91.42,91.42,0,0,0-3.67-19.25,69.14,69.14,0,0,0-8.55-18.1c-.71-.14-1.41-.33-2.11-.51s-1.68-.43-2.51-.66A25.09,25.09,0,0,1,62,353.38a.09.09,0,0,1,.09-.16,15.11,15.11,0,0,0,4.76,1.64c1.31.26,2.68.43,4,.74A63.22,63.22,0,0,0,67,350.46a29.08,29.08,0,0,1-9.57-.72,38.54,38.54,0,0,1-4.9-1.52c-1.68-.65-3.28-1.49-4.94-2.18-.12-.05,0-.24.08-.17a28.19,28.19,0,0,0,9.7,3.18,60,60,0,0,0,9.07.75c-1.19-1.37-2.43-2.71-3.75-4-4.41-4.21-9.66-8.08-15.48-10.09C47.07,335.71,47.13,335.53,47.24,335.57Z" style="fill:#263238"></path><path d="M60.92,335.64a24.75,24.75,0,0,1,2.06,3,15.77,15.77,0,0,1,1.49,3.51s0,.06-.07,0c-.56-1.11-1-2.26-1.6-3.36a17.37,17.37,0,0,0-2-3.06C60.71,335.68,60.85,335.55,60.92,335.64Z" style="fill:#263238"></path><path d="M45.28,343.17a17.35,17.35,0,0,0,3.45,1.44,30.26,30.26,0,0,0,3.51.94c.06,0,0,.11,0,.1a16.77,16.77,0,0,1-3.64-.79,30.45,30.45,0,0,1-3.4-1.53C45.08,343.28,45.18,343.11,45.28,343.17Z" style="fill:#263238"></path><path d="M88,357.07c.11,1,2.55-8.21,16.77-16.37,12.91-7.41,28.33-26.68,15.66-38.86C110.23,292,83.31,313.44,88,357.07Z" style="fill:#BA68C8"></path><path d="M78.23,409.77a253.36,253.36,0,0,1,2.26-28.6,128.48,128.48,0,0,1,6-25.59c1.06-3,2.27-5.93,3.58-8.83a20,20,0,0,1,.06-3.38c.07-1.45.2-2.9.33-4.34s.28-2.89.45-4.33.48-2.87.54-4.31c0-.13.21-.11.18,0a30.42,30.42,0,0,0-.51,4.58c-.11,1.39-.19,2.79-.23,4.18s0,2.8,0,4.2c0,.51,0,1,0,1.58,1.33-2.82,2.77-5.6,4.32-8.31-1-5.9.29-12.06,1.49-17.83,0-.11.2-.06.18.06A50,50,0,0,0,96,328c0,2.42.06,4.85.07,7.27.34-.58.68-1.16,1-1.74,1.84-3,3.81-6,5.91-8.82a13.76,13.76,0,0,1,.13-4.2,32.87,32.87,0,0,1,1-4.6c.46-1.5,1-3,1.58-4.44s1.44-2.91,2-4.41c.05-.12.24,0,.17.08a21.52,21.52,0,0,0-1.78,4.46A40,40,0,0,0,105,316c-.3,1.5-.54,3-.75,4.51-.14,1-.23,2-.4,3a109.94,109.94,0,0,1,10-11.59c.09-.08.21.05.13.14a130.82,130.82,0,0,0-14.46,19.67l-.45.79c.78-.49,1.68-.88,2.42-1.29q2.05-1.15,4.14-2.28l4-2.2c.69-.39,1.37-.78,2.07-1.14a16.14,16.14,0,0,0,2.41-1.34c.11-.08.23.08.11.15-1.37.75-2.58,1.87-3.9,2.71s-2.68,1.67-4.06,2.44c-2.53,1.41-5.27,2.42-7.76,3.88q-2.59,4.53-4.79,9.28,2.26-1.46,4.62-2.76c1-.57,2-1.13,3-1.66a15.2,15.2,0,0,0,2.87-1.73.09.09,0,1,1,.12.13,26.82,26.82,0,0,1-5.46,3.8c-1.83,1.07-3.67,2.1-5.57,3q-2.28,5-4.12,10.18c-6,16.95-8.18,34.94-9.23,52.81-.32,5.32-.48,10.65-.54,16s.21,10.65.2,16c0,.16-.26.19-.28,0-.64-4.72-.75-9.53-1-14.29S78.13,414.61,78.23,409.77Z" style="fill:#263238"></path><path d="M104.07,333a68.44,68.44,0,0,0,7.56-3.91,77.54,77.54,0,0,0,7.17-4.56s.09,0,0,.07a59.88,59.88,0,0,1-6.89,4.82,68.08,68.08,0,0,1-7.8,3.74C104.05,333.25,104,333.08,104.07,333Z" style="fill:#263238"></path><path d="M100,313.88c.21-.83.47-1.64.75-2.45a.07.07,0,0,1,0-.09c.17-.46.36-.91.55-1.37a1.26,1.26,0,0,1,.07-.16c0-.09.07-.18.1-.26s.06,0,0,0-.09.32-.14.47a1.29,1.29,0,0,1-.08.26,67.88,67.88,0,0,0-2.1,9.66c0,.1-.18.1-.17,0A31.94,31.94,0,0,1,100,313.88Z" style="fill:#263238"></path><polygon points="66.98 415.87 67.87 426.43 70.6 458.66 99.83 458.66 102.56 426.43 103.45 415.87 66.98 415.87" style="fill:#455a64"></polygon><polygon points="66.98 415.87 67.87 426.43 102.56 426.43 103.45 415.87 66.98 415.87" style="fill:#263238"></polygon><rect x="64.11" y="411.62" width="42.22" height="10.14" transform="translate(170.43 833.39) rotate(180)" style="fill:#455a64"></rect></g></svg>