<svg xmlns="http://www.w3.org/2000/svg" viewBox="0 0 500 500"><g id="freepik--Drone--inject-5"><polygon points="357.37 111.85 343.63 120.06 342.17 126.09 344.73 126.09 345.89 121.5 361.63 111.85 357.37 111.85" style="fill:#D03925"></polygon><polygon points="357.37 111.85 343.63 120.06 342.17 126.09 344.73 126.09 345.89 121.5 361.63 111.85 357.37 111.85" style="fill:#263238;opacity:0.1"></polygon><path d="M323.24,50.9a92.84,92.84,0,0,1,14.3,1.49,17.84,17.84,0,0,1,1.74.46,3.49,3.49,0,0,1,1.6.89.58.58,0,0,1,.08.51,1.06,1.06,0,0,1-.31.38,3.61,3.61,0,0,1-.81.45,13.75,13.75,0,0,1-1.73.53,55.43,55.43,0,0,1-7.12,1.1c-4.78.45-9.57.64-14.37.71s-9.59-.15-14.38-.28l7.19.11c2.4.07,4.79,0,7.19,0,4.79-.09,9.58-.31,14.35-.79a56.35,56.35,0,0,0,7.09-1,13.41,13.41,0,0,0,1.7-.52,3.76,3.76,0,0,0,.77-.41c.24-.17.36-.43.2-.65a3.49,3.49,0,0,0-1.5-.83c-.57-.18-1.15-.33-1.73-.46a62.65,62.65,0,0,0-7.1-1.06C328,51.23,325.63,51,323.24,50.9Z" style="fill:#c7c7c7"></path><path d="M293.74,56.56c-1.7-.15-3.39-.33-5.08-.58a19.77,19.77,0,0,1-5-1.25,2.26,2.26,0,0,1-.55-.38.61.61,0,0,1-.17-.67,2.16,2.16,0,0,1,1.06-.77,15.48,15.48,0,0,1,2.47-.72c1.67-.35,3.36-.59,5.05-.79,3.39-.36,6.79-.56,10.19-.69s6.81-.17,10.21-.11q-5.1.06-10.2.27c-3.4.16-6.79.39-10.17.78-1.69.18-3.38.41-5,.74a14.11,14.11,0,0,0-2.43.69,2,2,0,0,0-1,.67c-.15.35.28.66.63.83a20,20,0,0,0,4.9,1.29C290.36,56.15,292,56.37,293.74,56.56Z" style="fill:#c7c7c7"></path><path d="M298.33,50.17c-2.91.15-5.8.36-8.69.65A77.58,77.58,0,0,0,281,52.05a20.87,20.87,0,0,0-2.1.55,4.17,4.17,0,0,0-1.84,1c-.21.27,0,.61.24.81a4,4,0,0,0,.93.51,16.52,16.52,0,0,0,2.07.64,68.77,68.77,0,0,0,8.59,1.32c5.77.61,11.58.9,17.38,1,2.9.07,5.81.11,8.71,0l8.71-.09c-5.8.11-11.61.38-17.42.21s-11.62-.38-17.41-1a69.49,69.49,0,0,1-8.61-1.37,14.12,14.12,0,0,1-2.09-.67,4.17,4.17,0,0,1-1-.53,1.2,1.2,0,0,1-.37-.46.64.64,0,0,1,.09-.6,4.24,4.24,0,0,1,1.93-1.06c.7-.22,1.41-.4,2.12-.55A114.58,114.58,0,0,1,298.33,50.17Z" style="fill:#c7c7c7"></path><path d="M334,57.23c2.05-.21,4.1-.46,6.13-.79a24.09,24.09,0,0,0,5.95-1.52c.43-.21,1-.58.79-1a2.47,2.47,0,0,0-1.19-.84,17.76,17.76,0,0,0-2.95-.85c-2-.42-4.06-.7-6.1-.94-4.09-.5-8.21-.8-12.32-1S316.1,50,312,49.88c4.12,0,8.24,0,12.36.22s8.24.46,12.35.92c2,.26,4.09.55,6.11,1a17.3,17.3,0,0,1,3,.89,2.54,2.54,0,0,1,1.28.93.75.75,0,0,1-.21.79,3.16,3.16,0,0,1-.66.44,13.76,13.76,0,0,1-3,.94c-1,.23-2,.4-3.05.56C338.14,56.85,336.09,57.06,334,57.23Z" style="fill:#c7c7c7"></path><path d="M331.44,73.45a95.25,95.25,0,0,1,14.3,1.49,18.09,18.09,0,0,1,1.75.47,3.48,3.48,0,0,1,1.6.88.54.54,0,0,1,.07.51.93.93,0,0,1-.31.39,3.19,3.19,0,0,1-.81.44,12.85,12.85,0,0,1-1.73.54,57.05,57.05,0,0,1-7.11,1.09c-4.78.46-9.58.64-14.37.71s-9.59-.14-14.39-.27l7.19.1c2.4.07,4.8.06,7.19,0,4.79-.1,9.59-.31,14.35-.79a58.42,58.42,0,0,0,7.1-1,12.81,12.81,0,0,0,1.7-.52,3,3,0,0,0,.77-.41c.23-.16.36-.43.2-.64a3.38,3.38,0,0,0-1.51-.83,16.79,16.79,0,0,0-1.72-.47,67.9,67.9,0,0,0-7.1-1.06C336.22,73.79,333.83,73.6,331.44,73.45Z" style="fill:#c7c7c7"></path><path d="M301.94,79.11c-1.7-.14-3.39-.32-5.07-.57a20.3,20.3,0,0,1-5-1.26,2.79,2.79,0,0,1-.55-.37.64.64,0,0,1-.17-.67,2.07,2.07,0,0,1,1.07-.77,14.4,14.4,0,0,1,2.46-.72c1.68-.35,3.36-.59,5.06-.79,3.38-.37,6.79-.57,10.19-.7s6.8-.16,10.21-.11c-3.41,0-6.81.13-10.21.27s-6.79.39-10.17.78c-1.68.19-3.37.41-5,.75a14.45,14.45,0,0,0-2.44.68,2.07,2.07,0,0,0-1,.68c-.14.35.28.65.64.83a20.2,20.2,0,0,0,4.9,1.28C298.56,78.71,300.25,78.93,301.94,79.11Z" style="fill:#c7c7c7"></path><path d="M306.53,72.72c-2.9.16-5.8.36-8.69.65a80.74,80.74,0,0,0-8.61,1.23,21.64,21.64,0,0,0-2.1.56,4.14,4.14,0,0,0-1.83,1c-.21.27-.05.61.24.81a4.14,4.14,0,0,0,.93.5,14.47,14.47,0,0,0,2.06.64,69.08,69.08,0,0,0,8.59,1.33c5.78.61,11.58.9,17.39,1,2.9.07,5.8.1,8.71,0l8.71-.09c-5.81.12-11.62.38-17.43.22s-11.62-.38-17.4-1a70,70,0,0,1-8.62-1.37,15.81,15.81,0,0,1-2.09-.66,4.21,4.21,0,0,1-1-.54,1,1,0,0,1-.36-.46.67.67,0,0,1,.08-.6A4.32,4.32,0,0,1,287.08,75c.7-.22,1.4-.39,2.12-.55A115.75,115.75,0,0,1,306.53,72.72Z" style="fill:#c7c7c7"></path><path d="M342.24,79.79c2.05-.21,4.09-.46,6.13-.8a24.09,24.09,0,0,0,5.95-1.52c.43-.2,1-.57.78-1a2.43,2.43,0,0,0-1.19-.83,17.49,17.49,0,0,0-3-.85c-2-.43-4-.71-6.1-1-4.09-.49-8.2-.79-12.32-1s-8.24-.32-12.36-.38c4.12,0,8.25,0,12.37.22s8.24.45,12.34.92c2.05.25,4.09.55,6.11,1a18.19,18.19,0,0,1,3,.88,2.62,2.62,0,0,1,1.28.93.73.73,0,0,1-.21.8,2.92,2.92,0,0,1-.66.44,13.94,13.94,0,0,1-3,.93c-1,.23-2,.41-3,.56C346.34,79.4,344.29,79.62,342.24,79.79Z" style="fill:#c7c7c7"></path><path d="M414.16,51.16c-2.4.13-4.79.3-7.17.55a65.08,65.08,0,0,0-7.11,1,17.59,17.59,0,0,0-1.73.45,3.52,3.52,0,0,0-1.51.82c-.16.22,0,.48.2.65a3,3,0,0,0,.77.41,12,12,0,0,0,1.7.53,56,56,0,0,0,7.08,1.09c4.77.5,9.56.75,14.35.87,2.39.06,4.79.09,7.19,0l7.19-.07c-4.79.11-9.59.33-14.39.19s-9.59-.31-14.36-.79a56.86,56.86,0,0,1-7.11-1.13,12.89,12.89,0,0,1-1.73-.55,3.61,3.61,0,0,1-.81-.45.94.94,0,0,1-.3-.38.54.54,0,0,1,.07-.51A3.56,3.56,0,0,1,398.1,53a17.26,17.26,0,0,1,1.75-.45A92.74,92.74,0,0,1,414.16,51.16Z" style="fill:#c7c7c7"></path><path d="M443.62,57c1.7-.18,3.39-.39,5.06-.67a19.89,19.89,0,0,0,4.91-1.25c.35-.17.78-.48.64-.83a2.09,2.09,0,0,0-1-.68,14.13,14.13,0,0,0-2.43-.7c-1.66-.34-3.34-.58-5-.77-3.38-.41-6.77-.66-10.17-.84s-6.8-.27-10.2-.33c3.4,0,6.81,0,10.21.17s6.8.37,10.19.75c1.69.22,3.38.46,5,.82a14,14,0,0,1,2.46.74,2.15,2.15,0,0,1,1.07.77.64.64,0,0,1-.18.67,2.21,2.21,0,0,1-.55.37,19.38,19.38,0,0,1-5,1.23C447,56.68,445.32,56.85,443.62,57Z" style="fill:#c7c7c7"></path><path d="M439.07,50.57a114.32,114.32,0,0,1,17.32,1.82c.72.16,1.42.34,2.12.56A4.45,4.45,0,0,1,460.44,54a.67.67,0,0,1,.08.6,1.13,1.13,0,0,1-.37.46,3.83,3.83,0,0,1-1,.53,14.16,14.16,0,0,1-2.1.65,67.7,67.7,0,0,1-8.62,1.32c-5.79.55-11.6.78-17.41.87s-11.62-.17-17.42-.31l8.71.14c2.9.08,5.81.06,8.71,0,5.81-.12,11.61-.37,17.39-.95a69.4,69.4,0,0,0,8.6-1.28,14.43,14.43,0,0,0,2.06-.63,3.53,3.53,0,0,0,.94-.5c.29-.19.45-.53.24-.8a4.06,4.06,0,0,0-1.83-1,20.75,20.75,0,0,0-2.09-.57,80.12,80.12,0,0,0-8.61-1.28C444.87,51,442,50.74,439.07,50.57Z" style="fill:#c7c7c7"></path><path d="M403.32,57.43c-2.05-.18-4.1-.41-6.14-.71-1-.16-2-.34-3-.57a14,14,0,0,1-3-1,3.16,3.16,0,0,1-.66-.44.74.74,0,0,1-.2-.8A2.58,2.58,0,0,1,391.6,53a17.6,17.6,0,0,1,3-.87c2-.43,4.07-.71,6.12-.95,4.1-.45,8.22-.7,12.34-.85s8.25-.21,12.37-.15c-4.12,0-8.24.13-12.36.31s-8.23.46-12.33.93c-2,.23-4.09.5-6.1.91a16.68,16.68,0,0,0-3,.84,2.44,2.44,0,0,0-1.19.82c-.18.45.35.82.78,1a24,24,0,0,0,5.94,1.55C399.23,57,401.27,57.21,403.32,57.43Z" style="fill:#c7c7c7"></path><path d="M405.82,73.67c-2.39.13-4.78.3-7.17.54a65.25,65.25,0,0,0-7.1,1c-.59.13-1.17.28-1.73.46a3.46,3.46,0,0,0-1.51.82c-.16.22,0,.48.2.65a4,4,0,0,0,.76.41,14,14,0,0,0,1.7.53,56.46,56.46,0,0,0,7.09,1.09c4.76.5,9.55.75,14.34.87,2.4.06,4.8.09,7.19,0l7.19-.06c-4.79.1-9.58.33-14.38.19s-9.59-.31-14.37-.79a57.16,57.16,0,0,1-7.11-1.13,13.22,13.22,0,0,1-1.72-.55,3.22,3.22,0,0,1-.81-.45,1.06,1.06,0,0,1-.31-.38.57.57,0,0,1,.08-.51,3.39,3.39,0,0,1,1.6-.88,18,18,0,0,1,1.75-.46A93,93,0,0,1,405.82,73.67Z" style="fill:#c7c7c7"></path><path d="M435.29,79.5c1.69-.18,3.38-.39,5.06-.67a20.47,20.47,0,0,0,4.91-1.25c.35-.18.77-.48.63-.83a2,2,0,0,0-1-.68,14.67,14.67,0,0,0-2.43-.7c-1.66-.35-3.35-.58-5-.78-3.37-.4-6.76-.66-10.16-.83s-6.8-.27-10.2-.33c3.4,0,6.8,0,10.21.17s6.8.37,10.18.75c1.69.21,3.38.46,5,.82a15.4,15.4,0,0,1,2.46.73,2.08,2.08,0,0,1,1.06.78.61.61,0,0,1-.17.67,2.79,2.79,0,0,1-.55.37,20.36,20.36,0,0,1-5,1.23C438.68,79.19,437,79.36,435.29,79.5Z" style="fill:#c7c7c7"></path><path d="M430.74,73.08a114.59,114.59,0,0,1,17.32,1.82c.71.16,1.42.33,2.11.56a4.16,4.16,0,0,1,1.93,1.07.64.64,0,0,1,.09.6,1.13,1.13,0,0,1-.37.46,4,4,0,0,1-1,.53,15.32,15.32,0,0,1-2.09.65,68,68,0,0,1-8.62,1.32c-5.79.55-11.6.78-17.41.87s-11.62-.17-17.43-.32l8.72.14c2.9.09,5.8.07,8.71,0,5.8-.12,11.61-.38,17.38-1a68.85,68.85,0,0,0,8.6-1.28,14.56,14.56,0,0,0,2.07-.63,4.14,4.14,0,0,0,.93-.5c.29-.2.46-.53.25-.81a4.25,4.25,0,0,0-1.83-1c-.69-.22-1.39-.4-2.09-.56a78,78,0,0,0-8.61-1.28C436.53,73.47,433.64,73.25,430.74,73.08Z" style="fill:#c7c7c7"></path><path d="M395,79.94c-2.05-.19-4.1-.41-6.15-.71-1-.16-2-.34-3-.58a14.1,14.1,0,0,1-2.95-1,2.66,2.66,0,0,1-.66-.45.72.72,0,0,1-.2-.79,2.57,2.57,0,0,1,1.28-.93,17.2,17.2,0,0,1,3-.86c2-.43,4.07-.71,6.12-1,4.11-.44,8.23-.69,12.35-.85s8.25-.2,12.37-.14q-6.18,0-12.37.3c-4.11.19-8.23.47-12.32.94-2,.23-4.09.5-6.11.91a17.44,17.44,0,0,0-3,.83,2.5,2.5,0,0,0-1.2.83c-.17.44.36.82.78,1a24.63,24.63,0,0,0,5.94,1.55C390.89,79.45,392.94,79.72,395,79.94Z" style="fill:#c7c7c7"></path><polygon points="310.23 82.55 356.49 81.3 356.47 86.78 310.91 88.03 310.23 82.55" style="fill:#D03925"></polygon><polygon points="310.23 82.55 356.49 81.3 356.47 86.78 310.91 88.03 310.23 82.55" style="opacity:0.1"></polygon><polygon points="328.49 89.89 313.81 90.33 313.13 87.97 329.19 87.53 328.49 89.89" style="fill:#D03925"></polygon><polygon points="328.49 89.89 313.81 90.33 313.13 87.97 329.19 87.53 328.49 89.89" style="opacity:0.2"></polygon><rect x="318.81" y="77.83" width="4.75" height="4.75" transform="translate(0.23 -0.92) rotate(0.16)" style="fill:#263238"></rect><rect x="320.17" y="75.22" width="2.05" height="2.61" transform="translate(0.22 -0.91) rotate(0.16)" style="fill:#37474f"></rect><polygon points="320.17 75.6 296.8 75.53 296.8 76.02 314.15 77.46 320.17 76.42 320.17 75.6" style="fill:#a6a6a6"></polygon><polygon points="322.22 75.6 345.59 75.67 345.58 76.16 328.22 77.5 322.21 76.43 322.22 75.6" style="fill:#a6a6a6"></polygon><polygon points="427.76 82.88 381.51 81.37 381.5 86.85 427.05 88.37 427.76 82.88" style="fill:#D03925"></polygon><polygon points="427.76 82.88 381.51 81.37 381.5 86.85 427.05 88.37 427.76 82.88" style="opacity:0.1"></polygon><polygon points="409.46 90.12 424.13 90.65 424.83 88.29 408.77 87.76 409.46 90.12" style="fill:#D03925"></polygon><polygon points="409.46 90.12 424.13 90.65 424.83 88.29 408.77 87.76 409.46 90.12" style="opacity:0.2"></polygon><rect x="414.45" y="78.11" width="4.75" height="4.75" transform="translate(833.42 162.14) rotate(-179.84)" style="fill:#263238"></rect><rect x="415.81" y="75.5" width="2.05" height="2.61" transform="translate(833.45 154.8) rotate(-179.83)" style="fill:#37474f"></rect><polygon points="417.86 75.88 441.23 75.94 441.23 76.43 423.87 77.78 417.86 76.7 417.86 75.88" style="fill:#a6a6a6"></polygon><polygon points="415.82 75.87 392.45 75.8 392.44 76.29 409.8 77.74 415.81 76.69 415.82 75.87" style="fill:#a6a6a6"></polygon><polygon points="368.82 89.03 368.87 71.89 353.65 71.84 340.5 60.51 300.35 60.4 301.65 65.86 338.53 65.97 355.5 88.99 368.82 89.03" style="fill:#D03925"></polygon><polygon points="319.72 68.28 305.05 68.23 304.36 65.87 320.42 65.92 319.72 68.28" style="fill:#D03925"></polygon><polygon points="319.72 68.28 305.05 68.23 304.36 65.87 320.42 65.92 319.72 68.28" style="opacity:0.1"></polygon><rect x="309.58" y="55.68" width="4.75" height="4.75" transform="translate(0.17 -0.9) rotate(0.17)" style="fill:#263238"></rect><rect x="310.94" y="53.07" width="2.05" height="2.61" transform="translate(0.16 -0.88) rotate(0.16)" style="fill:#37474f"></rect><polygon points="310.94 53.45 287.57 53.38 287.57 53.87 304.93 55.31 310.94 54.27 310.94 53.45" style="fill:#a6a6a6"></polygon><polygon points="312.99 53.45 336.36 53.52 336.36 54.01 318.99 55.35 312.99 54.28 312.99 53.45" style="fill:#a6a6a6"></polygon><polygon points="368.82 89.03 368.87 71.89 384.09 71.93 397.31 60.67 437.46 60.79 436.12 66.25 399.25 66.14 382.14 89.06 368.82 89.03" style="fill:#D03925"></polygon><polygon points="418.04 68.56 432.72 68.6 433.42 66.24 417.36 66.19 418.04 68.56" style="fill:#D03925"></polygon><polygon points="418.04 68.56 432.72 68.6 433.42 66.24 417.36 66.19 418.04 68.56" style="opacity:0.1"></polygon><rect x="423.5" y="56.01" width="4.75" height="4.75" transform="translate(851.57 117.98) rotate(-179.84)" style="fill:#263238"></rect><rect x="424.86" y="53.4" width="2.05" height="2.61" transform="translate(851.6 110.63) rotate(-179.83)" style="fill:#37474f"></rect><polygon points="426.91 53.78 450.28 53.84 450.28 54.34 432.91 55.68 426.9 54.6 426.91 53.78" style="fill:#a6a6a6"></polygon><polygon points="424.86 53.77 401.49 53.7 401.49 54.2 418.85 55.64 424.86 54.6 424.86 53.77" style="fill:#a6a6a6"></polygon><polygon points="361.55 67.4 376.22 67.44 377.6 71.92 360.15 71.87 361.55 67.4" style="fill:#D03925"></polygon><polygon points="361.55 67.4 376.22 67.44 377.6 71.92 360.15 71.87 361.55 67.4" style="opacity:0.1"></polygon><polygon points="380.14 111.85 357.37 111.85 355.5 88.99 382.24 88.99 380.14 111.85" style="fill:#D03925"></polygon><circle cx="368.87" cy="100.42" r="9.97" transform="translate(-10.23 149.76) rotate(-22.64)" style="opacity:0.1"></circle><circle cx="368.87" cy="100.42" r="7.8" transform="translate(237.78 459.54) rotate(-85.18)" style="fill:#263238"></circle><path d="M371.46,100.42a2.59,2.59,0,1,1-2.59-2.59A2.58,2.58,0,0,1,371.46,100.42Z" style="fill:#37474f"></path><path d="M373,96.41a1.7,1.7,0,0,1-2.33.24c-.9-.53-1.34-1.48-1-2.13A2,2,0,0,1,373,96.41Z" style="fill:#fff"></path><path d="M374.6,99.27c-.37.21-.91,0-1.21-.55a1,1,0,0,1,.13-1.32c.37-.21.91,0,1.21.55A1,1,0,0,1,374.6,99.27Z" style="fill:#fff"></path><path d="M380.3,91.69a1,1,0,1,1-2,0,1,1,0,1,1,2,0Z" style="fill:#ce5a4a"></path><polygon points="355.5 88.99 382.24 88.99 382.19 89.6 355.64 90.72 355.5 88.99" style="opacity:0.1"></polygon><rect x="333.12" y="120.95" width="71.13" height="50.5" style="fill:#D03925"></rect><rect x="333.12" y="120.95" width="71.13" height="50.5" style="fill:#263238;opacity:0.1"></rect><rect x="380.03" y="120.96" width="24.22" height="50.5" style="fill:#263238;opacity:0.2"></rect><path d="M402.58,168q-2.68-5.39-5.33-10.81L392,146.31l-5.18-10.91q-2.58-5.46-5.11-11,2.69,5.4,5.33,10.81l5.25,10.86L397.47,157Q400,162.48,402.58,168Z" style="fill:#D03925"></path><path d="M402.58,124.43q-2.54,5.5-5.11,11l-5.19,10.91L387,157.17q-2.64,5.43-5.33,10.81,2.52-5.5,5.11-11L392,146.1l5.26-10.86Q399.89,129.82,402.58,124.43Z" style="fill:#D03925"></path><polygon points="388.51 133.88 389.46 133.88 390.22 132.81 390.93 133.88 391.36 133.88 391.81 133.88 392.46 133.88 392.71 133.5 393.03 133.88 393.82 133.88 394.02 133.88 394.28 133.88 394.39 133.61 394.63 133.88 394.96 133.4 395.34 133.88 395.87 133.88 395.87 120.95 388.51 120.95 388.51 133.88" style="fill:#fff;opacity:0.7000000000000001"></polygon><rect x="346.56" y="160.9" width="0.51" height="7.27" transform="translate(693.63 329.06) rotate(180)" style="fill:#263238"></rect><rect x="345.32" y="160.9" width="0.52" height="7.27" transform="translate(691.16 329.06) rotate(180)" style="fill:#263238"></rect><rect x="344.09" y="160.9" width="0.52" height="7.27" transform="translate(688.69 329.06) rotate(180)" style="fill:#263238"></rect><rect x="342.85" y="160.9" width="0.52" height="7.27" transform="translate(686.22 329.06) rotate(180)" style="fill:#263238"></rect><rect x="341.61" y="160.9" width="0.52" height="7.27" transform="translate(683.74 329.06) rotate(180)" style="fill:#263238"></rect><rect x="340.38" y="160.9" width="0.52" height="7.27" transform="translate(681.27 329.06) rotate(180)" style="fill:#263238"></rect><rect x="339.14" y="160.9" width="0.52" height="7.27" transform="translate(678.8 329.06) rotate(180)" style="fill:#263238"></rect><rect x="337.91" y="160.9" width="0.52" height="7.27" transform="translate(676.33 329.06) rotate(180)" style="fill:#263238"></rect><rect x="336.67" y="160.9" width="0.52" height="7.27" transform="translate(673.85 329.06) rotate(180)" style="fill:#263238"></rect><path d="M352.13,167.61l-2,.55h4.65l-2-.56v-2.67c1.42-.19,2-1.59,2-4h-4.65c0,2.44.56,3.84,2,4Z" style="fill:#263238"></path><polygon points="355.88 164.6 357.1 164.6 357.1 168.16 360.21 168.16 360.21 164.6 361.43 164.6 358.65 160.9 355.88 164.6" style="fill:#263238"></polygon><polygon points="333.12 171.46 333.12 167.98 380.03 161.54 380.03 171.46 333.12 171.46" style="fill:#263238;opacity:0.1"></polygon><polygon points="380.13 111.85 393.87 120.06 395.34 126.09 392.77 126.09 391.61 121.5 375.87 111.85 380.13 111.85" style="fill:#D03925"></polygon></g></svg>